<svg xmlns="http://www.w3.org/2000/svg" version="1.1" xmlns:xlink="http://www.w3.org/1999/xlink" xmlns:svgjs="http://svgjs.com/svgjs" width="1920" height="1080" preserveAspectRatio="none" viewBox="0 0 1920 1080"><g mask="url(&quot;#SvgjsMask3345&quot;)" fill="none"><rect width="1920" height="1080" x="0" y="0" fill="rgba(26, 6, 59, 1)"></rect><g mask="url(&quot;#SvgjsMask3347&quot;)"><path d="M261 567L279 549L297 549L315 549L333 549L351 549L369 549L387 549L405 549L423 549L441 549L459 549L477 549L495 549M513 567L531 549L549 549L567 549L585 549L603 549L621 549L639 549L657 549M171 567L189 549L207 549M963 567L981 549M153 567L171 549L189 531L207 531L225 531L243 531L261 531L279 531L297 513L315 513L333 513L351 513L369 513L387 513L405 513L423 513L441 513L459 513L477 531L495 531L513 531L531 531L549 531M945 567L963 549L981 531M765 567L783 549L801 531L819 531L837 531L855 531L873 531L891 531L909 531L927 531L945 531M891 567L909 549L927 549L945 549M225 567L243 549L261 549M135 567L153 549L171 531M693 567L711 549M729 567L747 549L765 549L783 531M819 567L837 549L855 549L873 549L891 549M675 567L693 549L711 531M-9 549L9 549L27 549L45 549L63 549L81 549L99 549L117 567L135 567L153 567L171 567L189 567L207 567L225 567L243 567L261 567L279 567L297 567L315 567L333 567L351 567L369 567L387 567L405 567L423 567L441 567L459 567L477 567L495 567L513 567L531 567L549 567L567 567L585 567L603 567L621 567L639 567L657 567L675 567L693 567L711 567L729 567L747 567L765 567L783 567L801 567L819 567L837 567L855 567L873 567L891 567L909 567L927 567L945 567L963 567L981 567" stroke="url(#SvgjsLinearGradient3346)" stroke-width="3"></path><path d="M976.5 567 a4.5 4.5 0 1 0 9 0 a4.5 4.5 0 1 0 -9 0zM490.5 549 a4.5 4.5 0 1 0 9 0 a4.5 4.5 0 1 0 -9 0zM652.5 549 a4.5 4.5 0 1 0 9 0 a4.5 4.5 0 1 0 -9 0zM202.5 549 a4.5 4.5 0 1 0 9 0 a4.5 4.5 0 1 0 -9 0zM976.5 549 a4.5 4.5 0 1 0 9 0 a4.5 4.5 0 1 0 -9 0zM544.5 531 a4.5 4.5 0 1 0 9 0 a4.5 4.5 0 1 0 -9 0zM976.5 531 a4.5 4.5 0 1 0 9 0 a4.5 4.5 0 1 0 -9 0zM940.5 531 a4.5 4.5 0 1 0 9 0 a4.5 4.5 0 1 0 -9 0zM940.5 549 a4.5 4.5 0 1 0 9 0 a4.5 4.5 0 1 0 -9 0zM256.5 549 a4.5 4.5 0 1 0 9 0 a4.5 4.5 0 1 0 -9 0zM166.5 531 a4.5 4.5 0 1 0 9 0 a4.5 4.5 0 1 0 -9 0zM706.5 549 a4.5 4.5 0 1 0 9 0 a4.5 4.5 0 1 0 -9 0zM778.5 531 a4.5 4.5 0 1 0 9 0 a4.5 4.5 0 1 0 -9 0zM886.5 549 a4.5 4.5 0 1 0 9 0 a4.5 4.5 0 1 0 -9 0zM706.5 531 a4.5 4.5 0 1 0 9 0 a4.5 4.5 0 1 0 -9 0z" fill="url(#SvgjsLinearGradient3346)"></path><path d="M477 459L495 477L513 477L531 477L549 477M927 513L945 495L963 495L981 495L999 495L1017 495L1035 477M1089 495L1107 477L1125 477L1143 477L1161 459L1179 459L1197 459L1215 459L1233 459M711 477L729 459L747 459M621 459L639 477L657 477M387 477L405 495L423 495M1233 495L1251 513L1269 513L1287 513L1305 531L1323 549L1341 549L1359 549L1377 549L1395 549L1413 549L1431 549L1449 549M837 513L855 495L873 495L891 495L909 495L927 495L945 477L963 459L981 459L999 459L1017 441L1035 441M243 495L261 513L279 513M1215 495L1233 513L1251 531L1269 531M1107 495L1125 513L1143 513L1161 513L1179 513L1197 513L1215 513L1233 531L1251 549L1269 549L1287 549L1305 549M639 459L657 441L675 441L693 441L711 441L729 441L747 441L765 441L783 441L801 441L819 441L837 441L855 441L873 441L891 441L909 441L927 441L945 423M567 459L585 477L603 477L621 477L639 495L657 495L675 477L693 477L711 495L729 495L747 495L765 513L783 513M351 477L369 495L387 495M63 531L81 531L99 531L117 531L135 531L153 531M765 495L783 477L801 477L819 477L837 477L855 477M1035 495L1053 513L1071 513L1089 531L1107 531L1125 531L1143 531L1161 531L1179 531L1197 531L1215 531L1233 549M801 495L819 513M-9 531L9 531L27 531L45 531L63 531L81 513L99 513L117 513L135 513L153 513L171 513L189 513L207 513L225 495L243 495L261 495L279 495L297 495L315 477L333 477L351 477L369 477L387 477L405 477L423 477L441 477L459 459L477 459L495 459L513 459L531 459L549 459L567 459L585 459L603 459L621 459L639 459L657 459L675 459L693 459L711 477L729 477L747 477L765 495L783 495L801 495L819 495L837 513L855 513L873 513L891 513L909 513L927 513L945 513L963 513L981 513L999 513L1017 513L1035 495L1053 495L1071 495L1089 495L1107 495L1125 495L1143 495L1161 495L1179 495L1197 495L1215 495L1233 495L1251 495L1269 495" stroke="url(#SvgjsLinearGradient3346)" stroke-width="3"></path><path d="M1264.5 495 a4.5 4.5 0 1 0 9 0 a4.5 4.5 0 1 0 -9 0zM544.5 477 a4.5 4.5 0 1 0 9 0 a4.5 4.5 0 1 0 -9 0zM1030.5 477 a4.5 4.5 0 1 0 9 0 a4.5 4.5 0 1 0 -9 0zM1228.5 459 a4.5 4.5 0 1 0 9 0 a4.5 4.5 0 1 0 -9 0zM742.5 459 a4.5 4.5 0 1 0 9 0 a4.5 4.5 0 1 0 -9 0zM652.5 477 a4.5 4.5 0 1 0 9 0 a4.5 4.5 0 1 0 -9 0zM418.5 495 a4.5 4.5 0 1 0 9 0 a4.5 4.5 0 1 0 -9 0zM1444.5 549 a4.5 4.5 0 1 0 9 0 a4.5 4.5 0 1 0 -9 0zM1030.5 441 a4.5 4.5 0 1 0 9 0 a4.5 4.5 0 1 0 -9 0zM274.5 513 a4.5 4.5 0 1 0 9 0 a4.5 4.5 0 1 0 -9 0zM1264.5 531 a4.5 4.5 0 1 0 9 0 a4.5 4.5 0 1 0 -9 0zM1300.5 549 a4.5 4.5 0 1 0 9 0 a4.5 4.5 0 1 0 -9 0zM940.5 423 a4.5 4.5 0 1 0 9 0 a4.5 4.5 0 1 0 -9 0zM778.5 513 a4.5 4.5 0 1 0 9 0 a4.5 4.5 0 1 0 -9 0zM382.5 495 a4.5 4.5 0 1 0 9 0 a4.5 4.5 0 1 0 -9 0zM148.5 531 a4.5 4.5 0 1 0 9 0 a4.5 4.5 0 1 0 -9 0zM850.5 477 a4.5 4.5 0 1 0 9 0 a4.5 4.5 0 1 0 -9 0zM1228.5 549 a4.5 4.5 0 1 0 9 0 a4.5 4.5 0 1 0 -9 0zM814.5 513 a4.5 4.5 0 1 0 9 0 a4.5 4.5 0 1 0 -9 0z" fill="url(#SvgjsLinearGradient3346)"></path><path d="M189 585L207 603M765 585L783 603L801 621L819 621L837 621L855 621L873 621L891 621L909 621L927 639L945 657L963 657L981 657L999 675L1017 675L1035 657L1053 657L1071 657L1089 657L1107 657L1125 639L1143 639L1161 639L1179 639M1125 567L1143 549L1161 549L1179 549L1197 549L1215 549M1089 567L1107 585L1125 585L1143 585L1161 603L1179 603L1197 603L1215 603L1233 603L1251 603L1269 603L1287 603L1305 603L1323 603L1341 603L1359 603M423 585L441 603L459 603L477 603M1449 567L1467 585M729 585L747 603L765 603L783 621L801 639L819 639L837 639L855 639L873 639L891 639L909 639L927 657L945 675L963 675L981 693L999 693L1017 693L1035 693L1053 693L1071 693M1107 567L1125 549M333 585L351 603M153 585L171 603L189 603M1395 567L1413 585L1431 585L1449 585L1467 603M279 585L297 603L315 603L333 621L351 621L369 621L387 621L405 621L423 621L441 621L459 621L477 621L495 621L513 621L531 621L549 621M711 585L729 603L747 621L765 621L783 639L801 657L819 657L837 657L855 657L873 657L891 657L909 657M1377 567L1395 585L1413 603L1431 603M675 585L693 603L711 603L729 621L747 639L765 639L783 657L801 675L819 693L837 693M621 585L639 603L657 603L675 603L693 621M981 585L999 603L1017 603L1035 603M1341 567L1359 585L1377 585L1395 603L1413 621L1431 621L1449 621L1467 621L1485 621L1503 621L1521 621L1539 621L1557 621L1575 621L1593 621L1611 621L1629 621L1647 603L1665 603L1683 603L1701 603L1719 603L1737 603L1755 603L1773 603L1791 603L1809 603M855 585L873 603L891 603M567 585L585 603L603 603L621 603L639 621M-9 567L9 567L27 567L45 567L63 567L81 567L99 567L117 585L135 585L153 585L171 585L189 585L207 585L225 585L243 585L261 585L279 585L297 585L315 585L333 585L351 585L369 585L387 585L405 585L423 585L441 585L459 585L477 585L495 585L513 585L531 585L549 585L567 585L585 585L603 585L621 585L639 585L657 585L675 585L693 585L711 585L729 585L747 585L765 585L783 585L801 585L819 585L837 585L855 585L873 585L891 585L909 585L927 585L945 585L963 585L981 585L999 585L1017 585L1035 585L1053 585L1071 585L1089 567L1107 567L1125 567L1143 567L1161 585L1179 585L1197 585L1215 585L1233 567L1251 567L1269 567L1287 567L1305 567L1323 567L1341 567L1359 567L1377 567L1395 567L1413 567L1431 567L1449 567L1467 567" stroke="url(#SvgjsLinearGradient3346)" stroke-width="3"></path><path d="M1462.5 567 a4.5 4.5 0 1 0 9 0 a4.5 4.5 0 1 0 -9 0zM202.5 603 a4.5 4.5 0 1 0 9 0 a4.5 4.5 0 1 0 -9 0zM1174.5 639 a4.5 4.5 0 1 0 9 0 a4.5 4.5 0 1 0 -9 0zM1210.5 549 a4.5 4.5 0 1 0 9 0 a4.5 4.5 0 1 0 -9 0zM1354.5 603 a4.5 4.5 0 1 0 9 0 a4.5 4.5 0 1 0 -9 0zM472.5 603 a4.5 4.5 0 1 0 9 0 a4.5 4.5 0 1 0 -9 0zM1462.5 585 a4.5 4.5 0 1 0 9 0 a4.5 4.5 0 1 0 -9 0zM1066.5 693 a4.5 4.5 0 1 0 9 0 a4.5 4.5 0 1 0 -9 0zM1120.5 549 a4.5 4.5 0 1 0 9 0 a4.5 4.5 0 1 0 -9 0zM346.5 603 a4.5 4.5 0 1 0 9 0 a4.5 4.5 0 1 0 -9 0zM184.5 603 a4.5 4.5 0 1 0 9 0 a4.5 4.5 0 1 0 -9 0zM1462.5 603 a4.5 4.5 0 1 0 9 0 a4.5 4.5 0 1 0 -9 0zM544.5 621 a4.5 4.5 0 1 0 9 0 a4.5 4.5 0 1 0 -9 0zM904.5 657 a4.5 4.5 0 1 0 9 0 a4.5 4.5 0 1 0 -9 0zM1426.5 603 a4.5 4.5 0 1 0 9 0 a4.5 4.5 0 1 0 -9 0zM832.5 693 a4.5 4.5 0 1 0 9 0 a4.5 4.5 0 1 0 -9 0zM688.5 621 a4.5 4.5 0 1 0 9 0 a4.5 4.5 0 1 0 -9 0zM1030.5 603 a4.5 4.5 0 1 0 9 0 a4.5 4.5 0 1 0 -9 0zM1804.5 603 a4.5 4.5 0 1 0 9 0 a4.5 4.5 0 1 0 -9 0zM886.5 603 a4.5 4.5 0 1 0 9 0 a4.5 4.5 0 1 0 -9 0zM634.5 621 a4.5 4.5 0 1 0 9 0 a4.5 4.5 0 1 0 -9 0z" fill="url(#SvgjsLinearGradient3346)"></path><path d="M675 423L693 405L711 405L729 405L747 405L765 405M1107 387L1125 405M621 423L639 441M1017 423L1035 405M981 423L999 405L1017 405M585 441L603 441L621 441M765 423L783 423L801 423L819 423L837 423L855 423L873 423L891 423L909 423L927 423M657 423L675 405M189 495L207 495M1197 387L1215 387L1233 387L1251 387L1269 387L1287 387L1305 387L1323 387L1341 387L1359 387L1377 387L1395 387L1413 387L1431 387L1449 387L1467 387L1485 387L1503 387L1521 387L1539 387L1557 405L1575 405L1593 405L1611 405L1629 405M1215 405L1233 423M963 423L981 441L999 441M1161 387L1179 405L1197 405L1215 423L1233 441M1251 405L1269 423L1287 423M1035 423L1053 423L1071 423L1089 423L1107 441M945 405L963 405L981 405M-9 513L9 513L27 513L45 513L63 513L81 495L99 495L117 495L135 495L153 495L171 495L189 495L207 477L225 477L243 477L261 477L279 477L297 477L315 459L333 459L351 459L369 459L387 459L405 459L423 459L441 459L459 441L477 441L495 441L513 441L531 441L549 441L567 441L585 441L603 423L621 423L639 423L657 423L675 423L693 423L711 423L729 423L747 423L765 423L783 405L801 405L819 405L837 405L855 405L873 405L891 405L909 405L927 405L945 405L963 423L981 423L999 423L1017 423L1035 423L1053 405L1071 405L1089 405L1107 387L1125 387L1143 387L1161 387L1179 387L1197 387L1215 405L1233 405L1251 405L1269 405" stroke="url(#SvgjsLinearGradient3346)" stroke-width="3"></path><path d="M1264.5 405 a4.5 4.5 0 1 0 9 0 a4.5 4.5 0 1 0 -9 0zM760.5 405 a4.5 4.5 0 1 0 9 0 a4.5 4.5 0 1 0 -9 0zM1120.5 405 a4.5 4.5 0 1 0 9 0 a4.5 4.5 0 1 0 -9 0zM634.5 441 a4.5 4.5 0 1 0 9 0 a4.5 4.5 0 1 0 -9 0zM1030.5 405 a4.5 4.5 0 1 0 9 0 a4.5 4.5 0 1 0 -9 0zM1012.5 405 a4.5 4.5 0 1 0 9 0 a4.5 4.5 0 1 0 -9 0zM616.5 441 a4.5 4.5 0 1 0 9 0 a4.5 4.5 0 1 0 -9 0zM922.5 423 a4.5 4.5 0 1 0 9 0 a4.5 4.5 0 1 0 -9 0zM670.5 405 a4.5 4.5 0 1 0 9 0 a4.5 4.5 0 1 0 -9 0zM202.5 495 a4.5 4.5 0 1 0 9 0 a4.5 4.5 0 1 0 -9 0zM1624.5 405 a4.5 4.5 0 1 0 9 0 a4.5 4.5 0 1 0 -9 0zM1228.5 423 a4.5 4.5 0 1 0 9 0 a4.5 4.5 0 1 0 -9 0zM994.5 441 a4.5 4.5 0 1 0 9 0 a4.5 4.5 0 1 0 -9 0zM1228.5 441 a4.5 4.5 0 1 0 9 0 a4.5 4.5 0 1 0 -9 0zM1282.5 423 a4.5 4.5 0 1 0 9 0 a4.5 4.5 0 1 0 -9 0zM1102.5 441 a4.5 4.5 0 1 0 9 0 a4.5 4.5 0 1 0 -9 0zM976.5 405 a4.5 4.5 0 1 0 9 0 a4.5 4.5 0 1 0 -9 0z" fill="url(#SvgjsLinearGradient3346)"></path><path d="M981 711L999 729L1017 729L1035 729M855 711L873 693L891 693L909 693L927 693L945 693L963 693M783 711L801 729L819 729L837 729L855 729L873 729L891 729L909 729M639 675L657 693L675 693L693 693L711 711L729 711L747 729L765 729L783 747L801 747L819 747L837 747L855 747M747 711L765 693L783 693L801 693M459 657L477 675L495 693L513 693L531 693L549 693L567 693M387 657L405 675L423 693L441 693L459 693L477 693L495 711L513 711L531 711L549 711L567 711L585 711L603 711L621 711M621 675L639 657L657 657L675 657L693 657L711 657L729 657M423 657L441 639L459 639L477 639L495 657L513 657M549 675L567 657L585 657L603 657L621 657L639 639L657 639M225 621L243 603L261 603L279 603M927 711L945 729L963 729L981 729M585 675L603 693L621 693L639 693M315 657L333 639L351 639L369 639L387 639L405 639L423 639M441 657L459 675M531 675L549 657L567 639L585 639L603 639L621 639M-9 585L9 585L27 585L45 585L63 585L81 585L99 585L117 603L135 603L153 621L171 621L189 621L207 621L225 621L243 621L261 621L279 621L297 639L315 657L333 657L351 657L369 657L387 657L405 657L423 657L441 657L459 657L477 657L495 675L513 675L531 675L549 675L567 675L585 675L603 675L621 675L639 675L657 675L675 675L693 675L711 693L729 693L747 711L765 711L783 711L801 711L819 711L837 711L855 711L873 711L891 711L909 711L927 711L945 711L963 711L981 711L999 711L1017 711L1035 711L1053 711L1071 711L1089 711L1107 729L1125 729" stroke="url(#SvgjsLinearGradient3346)" stroke-width="3"></path><path d="M1120.5 729 a4.5 4.5 0 1 0 9 0 a4.5 4.5 0 1 0 -9 0zM1030.5 729 a4.5 4.5 0 1 0 9 0 a4.5 4.5 0 1 0 -9 0zM958.5 693 a4.5 4.5 0 1 0 9 0 a4.5 4.5 0 1 0 -9 0zM904.5 729 a4.5 4.5 0 1 0 9 0 a4.5 4.5 0 1 0 -9 0zM850.5 747 a4.5 4.5 0 1 0 9 0 a4.5 4.5 0 1 0 -9 0zM796.5 693 a4.5 4.5 0 1 0 9 0 a4.5 4.5 0 1 0 -9 0zM562.5 693 a4.5 4.5 0 1 0 9 0 a4.5 4.5 0 1 0 -9 0zM616.5 711 a4.5 4.5 0 1 0 9 0 a4.5 4.5 0 1 0 -9 0zM724.5 657 a4.5 4.5 0 1 0 9 0 a4.5 4.5 0 1 0 -9 0zM508.5 657 a4.5 4.5 0 1 0 9 0 a4.5 4.5 0 1 0 -9 0zM652.5 639 a4.5 4.5 0 1 0 9 0 a4.5 4.5 0 1 0 -9 0zM274.5 603 a4.5 4.5 0 1 0 9 0 a4.5 4.5 0 1 0 -9 0zM976.5 729 a4.5 4.5 0 1 0 9 0 a4.5 4.5 0 1 0 -9 0zM634.5 693 a4.5 4.5 0 1 0 9 0 a4.5 4.5 0 1 0 -9 0zM418.5 639 a4.5 4.5 0 1 0 9 0 a4.5 4.5 0 1 0 -9 0zM454.5 675 a4.5 4.5 0 1 0 9 0 a4.5 4.5 0 1 0 -9 0zM616.5 639 a4.5 4.5 0 1 0 9 0 a4.5 4.5 0 1 0 -9 0z" fill="url(#SvgjsLinearGradient3346)"></path><path d="M-9 495L9 495L27 495L45 495L63 495L81 477L99 477L117 477L135 477L153 477L171 477" stroke="url(#SvgjsLinearGradient3346)" stroke-width="3"></path><path d="M166.5 477 a4.5 4.5 0 1 0 9 0 a4.5 4.5 0 1 0 -9 0z" fill="url(#SvgjsLinearGradient3346)"></path><path d="M63 603L81 603L99 603M333 693L351 675L369 675M459 711L477 711M27 603L45 621M387 693L405 693M-9 603L9 603L27 603L45 603L63 603L81 621L99 621L117 621L135 621L153 639L171 639L189 639L207 639L225 639L243 639L261 639L279 639L297 657L315 675L333 693L351 693L369 693L387 693L405 711L423 711L441 711L459 711L477 729" stroke="url(#SvgjsLinearGradient3346)" stroke-width="3"></path><path d="M472.5 729 a4.5 4.5 0 1 0 9 0 a4.5 4.5 0 1 0 -9 0zM94.5 603 a4.5 4.5 0 1 0 9 0 a4.5 4.5 0 1 0 -9 0zM364.5 675 a4.5 4.5 0 1 0 9 0 a4.5 4.5 0 1 0 -9 0zM472.5 711 a4.5 4.5 0 1 0 9 0 a4.5 4.5 0 1 0 -9 0zM40.5 621 a4.5 4.5 0 1 0 9 0 a4.5 4.5 0 1 0 -9 0zM400.5 693 a4.5 4.5 0 1 0 9 0 a4.5 4.5 0 1 0 -9 0z" fill="url(#SvgjsLinearGradient3346)"></path><path d="M243 459L261 441L279 423L297 423M981 387L999 369L1017 351L1035 351L1053 351L1071 351L1089 351L1107 351L1125 351L1143 333L1161 333L1179 333L1197 333L1215 333M873 387L891 369L909 369M171 459L189 441M531 423L549 405L567 405L585 405M279 459L297 441M1071 387L1089 369M801 387L819 369L837 369L855 369L873 369M1233 369L1251 351L1269 351L1287 351L1305 351L1323 351L1341 351L1359 351L1377 333L1395 315L1413 315L1431 315L1449 315L1467 315L1485 315L1503 315L1521 315L1539 315L1557 315L1575 315L1593 315L1611 315L1629 315L1647 315L1665 315L1683 315L1701 315L1719 315L1737 315L1755 315L1773 315M639 405L657 405M927 387L945 369L963 369L981 369L999 351L1017 333L1035 333L1053 333L1071 333L1089 333L1107 333M225 459L243 441L261 423M1143 369L1161 351L1179 351L1197 351L1215 351L1233 351L1251 333L1269 333L1287 333L1305 333L1323 333L1341 333L1359 333L1377 315L1395 297L1413 297L1431 297L1449 297L1467 297L1485 297L1503 297L1521 297L1539 297L1557 297L1575 297L1593 297L1611 297L1629 297L1647 297L1665 297L1683 297L1701 297L1719 297L1737 279M729 387L747 369L765 369L783 369L801 369M1053 387L1071 369M315 441L333 423M1035 387L1053 369M693 387L711 369L729 369M1017 387L1035 369M-9 477L9 477L27 477L45 477L63 477L81 459L99 459L117 459L135 459L153 459L171 459L189 459L207 459L225 459L243 459L261 459L279 459L297 459L315 441L333 441L351 441L369 441L387 441L405 441L423 441L441 441L459 423L477 423L495 423L513 423L531 423L549 423L567 423L585 423L603 405L621 405L639 405L657 387L675 387L693 387L711 387L729 387L747 387L765 387L783 387L801 387L819 387L837 387L855 387L873 387L891 387L909 387L927 387L945 387L963 387L981 387L999 387L1017 387L1035 387L1053 387L1071 387L1089 387L1107 369L1125 369L1143 369L1161 369L1179 369L1197 369L1215 369L1233 369L1251 369L1269 369L1287 369L1305 369L1323 369L1341 369L1359 369L1377 351L1395 333" stroke="url(#SvgjsLinearGradient3346)" stroke-width="3"></path><path d="M1390.5 333 a4.5 4.5 0 1 0 9 0 a4.5 4.5 0 1 0 -9 0zM292.5 423 a4.5 4.5 0 1 0 9 0 a4.5 4.5 0 1 0 -9 0zM1210.5 333 a4.5 4.5 0 1 0 9 0 a4.5 4.5 0 1 0 -9 0zM904.5 369 a4.5 4.5 0 1 0 9 0 a4.5 4.5 0 1 0 -9 0zM184.5 441 a4.5 4.5 0 1 0 9 0 a4.5 4.5 0 1 0 -9 0zM580.5 405 a4.5 4.5 0 1 0 9 0 a4.5 4.5 0 1 0 -9 0zM292.5 441 a4.5 4.5 0 1 0 9 0 a4.5 4.5 0 1 0 -9 0zM1084.5 369 a4.5 4.5 0 1 0 9 0 a4.5 4.5 0 1 0 -9 0zM868.5 369 a4.5 4.5 0 1 0 9 0 a4.5 4.5 0 1 0 -9 0zM1768.5 315 a4.5 4.5 0 1 0 9 0 a4.5 4.5 0 1 0 -9 0zM652.5 405 a4.5 4.5 0 1 0 9 0 a4.5 4.5 0 1 0 -9 0zM1102.5 333 a4.5 4.5 0 1 0 9 0 a4.5 4.5 0 1 0 -9 0zM256.5 423 a4.5 4.5 0 1 0 9 0 a4.5 4.5 0 1 0 -9 0zM1732.5 279 a4.5 4.5 0 1 0 9 0 a4.5 4.5 0 1 0 -9 0zM796.5 369 a4.5 4.5 0 1 0 9 0 a4.5 4.5 0 1 0 -9 0zM1066.5 369 a4.5 4.5 0 1 0 9 0 a4.5 4.5 0 1 0 -9 0zM328.5 423 a4.5 4.5 0 1 0 9 0 a4.5 4.5 0 1 0 -9 0zM1048.5 369 a4.5 4.5 0 1 0 9 0 a4.5 4.5 0 1 0 -9 0zM724.5 369 a4.5 4.5 0 1 0 9 0 a4.5 4.5 0 1 0 -9 0zM1030.5 369 a4.5 4.5 0 1 0 9 0 a4.5 4.5 0 1 0 -9 0z" fill="url(#SvgjsLinearGradient3346)"></path><path d="M495 747L513 729L531 729L549 729L567 729L585 729L603 729L621 729M693 765L711 765L729 765L747 765L765 765L783 765L801 765M549 765L567 747L585 747L603 747L621 747L639 747L657 747L675 747M873 765L891 765L909 765L927 765L945 765L963 765L981 765L999 765L1017 765L1035 765L1053 765L1071 765L1089 765L1107 765L1125 765L1143 765L1161 765L1179 783L1197 783L1215 783L1233 783L1251 783L1269 783L1287 783L1305 783L1323 783L1341 783M1161 747L1179 729L1197 729L1215 729L1233 729L1251 729L1269 729L1287 729L1305 729L1323 729L1341 729L1359 729M1071 747L1089 729M9 621L27 621M225 657L243 675L261 675L279 675M1143 747L1161 729L1179 711L1197 711M531 747L549 747M207 657L225 675L243 693M1053 747L1071 729M819 783L837 765M1179 747L1197 747L1215 747L1233 747L1251 747L1269 747L1287 747L1305 747L1323 747L1341 747L1359 747L1377 747L1395 729L1413 729M855 765L873 783L891 783L909 783L927 783L945 783L963 783L981 783L999 783L1017 783L1035 783L1053 801L1071 801L1089 801L1107 801L1125 801L1143 801L1161 801L1179 801L1197 801L1215 801M-9 621L9 621L27 639L45 639L63 639L81 639L99 639L117 639L135 639L153 657L171 657L189 657L207 657L225 657L243 657L261 657L279 657L297 675L315 693L333 711L351 711L369 711L387 711L405 729L423 729L441 729L459 729L477 747L495 747L513 747L531 747L549 765L567 765L585 765L603 765L621 765L639 765L657 765L675 765L693 765L711 783L729 783L747 783L765 783L783 783L801 783L819 783L837 783L855 765L873 765L891 747L909 747L927 747L945 747L963 747L981 747L999 747L1017 747L1035 747L1053 747L1071 747L1089 747L1107 747L1125 747L1143 747L1161 747L1179 747L1197 765" stroke="url(#SvgjsLinearGradient3346)" stroke-width="3"></path><path d="M1192.5 765 a4.5 4.5 0 1 0 9 0 a4.5 4.5 0 1 0 -9 0zM616.5 729 a4.5 4.5 0 1 0 9 0 a4.5 4.5 0 1 0 -9 0zM796.5 765 a4.5 4.5 0 1 0 9 0 a4.5 4.5 0 1 0 -9 0zM670.5 747 a4.5 4.5 0 1 0 9 0 a4.5 4.5 0 1 0 -9 0zM1336.5 783 a4.5 4.5 0 1 0 9 0 a4.5 4.5 0 1 0 -9 0zM1354.5 729 a4.5 4.5 0 1 0 9 0 a4.5 4.5 0 1 0 -9 0zM1084.5 729 a4.5 4.5 0 1 0 9 0 a4.5 4.5 0 1 0 -9 0zM22.5 621 a4.5 4.5 0 1 0 9 0 a4.5 4.5 0 1 0 -9 0zM274.5 675 a4.5 4.5 0 1 0 9 0 a4.5 4.5 0 1 0 -9 0zM1192.5 711 a4.5 4.5 0 1 0 9 0 a4.5 4.5 0 1 0 -9 0zM544.5 747 a4.5 4.5 0 1 0 9 0 a4.5 4.5 0 1 0 -9 0zM238.5 693 a4.5 4.5 0 1 0 9 0 a4.5 4.5 0 1 0 -9 0zM1066.5 729 a4.5 4.5 0 1 0 9 0 a4.5 4.5 0 1 0 -9 0zM832.5 765 a4.5 4.5 0 1 0 9 0 a4.5 4.5 0 1 0 -9 0zM1408.5 729 a4.5 4.5 0 1 0 9 0 a4.5 4.5 0 1 0 -9 0zM1210.5 801 a4.5 4.5 0 1 0 9 0 a4.5 4.5 0 1 0 -9 0z" fill="url(#SvgjsLinearGradient3346)"></path><path d="M675 369L693 369M225 423L243 423M1053 315L1071 297L1089 297L1107 297M315 405L333 387L351 387L369 387L387 387L405 387L423 387M387 423L405 405L423 405L441 405L459 387L477 387M909 351L927 333L945 333L963 333M135 441L153 441L171 441M333 405L351 405L369 405M1035 315L1053 297M1179 315L1197 297L1215 297L1233 297L1251 297M1161 315L1179 297L1197 279L1215 279L1233 279L1251 279L1269 279L1287 279L1305 279L1323 279M1125 315L1143 297M207 423L225 441M963 351L981 351M495 387L513 405L531 405M477 405L495 405M981 333L999 333M-9 459L9 459L27 459L45 459L63 459L81 441L99 441L117 441L135 441L153 423L171 423L189 423L207 423L225 423L243 405L261 405L279 405L297 405L315 405L333 405L351 423L369 423L387 423L405 423L423 423L441 423L459 405L477 405L495 387L513 387L531 387L549 387L567 387L585 387L603 387L621 387L639 387L657 369L675 369L693 351L711 351L729 351L747 351L765 351L783 351L801 351L819 351L837 351L855 351L873 351L891 351L909 351L927 351L945 351L963 351L981 333L999 315L1017 315L1035 315L1053 315L1071 315L1089 315L1107 315L1125 315L1143 315L1161 315L1179 315L1197 315L1215 315L1233 315" stroke="url(#SvgjsLinearGradient3346)" stroke-width="3"></path><path d="M1228.5 315 a4.5 4.5 0 1 0 9 0 a4.5 4.5 0 1 0 -9 0zM688.5 369 a4.5 4.5 0 1 0 9 0 a4.5 4.5 0 1 0 -9 0zM238.5 423 a4.5 4.5 0 1 0 9 0 a4.5 4.5 0 1 0 -9 0zM1102.5 297 a4.5 4.5 0 1 0 9 0 a4.5 4.5 0 1 0 -9 0zM418.5 387 a4.5 4.5 0 1 0 9 0 a4.5 4.5 0 1 0 -9 0zM472.5 387 a4.5 4.5 0 1 0 9 0 a4.5 4.5 0 1 0 -9 0zM958.5 333 a4.5 4.5 0 1 0 9 0 a4.5 4.5 0 1 0 -9 0zM166.5 441 a4.5 4.5 0 1 0 9 0 a4.5 4.5 0 1 0 -9 0zM364.5 405 a4.5 4.5 0 1 0 9 0 a4.5 4.5 0 1 0 -9 0zM1048.5 297 a4.5 4.5 0 1 0 9 0 a4.5 4.5 0 1 0 -9 0zM1246.5 297 a4.5 4.5 0 1 0 9 0 a4.5 4.5 0 1 0 -9 0zM1318.5 279 a4.5 4.5 0 1 0 9 0 a4.5 4.5 0 1 0 -9 0zM1138.5 297 a4.5 4.5 0 1 0 9 0 a4.5 4.5 0 1 0 -9 0zM220.5 441 a4.5 4.5 0 1 0 9 0 a4.5 4.5 0 1 0 -9 0zM976.5 351 a4.5 4.5 0 1 0 9 0 a4.5 4.5 0 1 0 -9 0zM526.5 405 a4.5 4.5 0 1 0 9 0 a4.5 4.5 0 1 0 -9 0zM490.5 405 a4.5 4.5 0 1 0 9 0 a4.5 4.5 0 1 0 -9 0zM994.5 333 a4.5 4.5 0 1 0 9 0 a4.5 4.5 0 1 0 -9 0z" fill="url(#SvgjsLinearGradient3346)"></path><path d="M189 675L207 675M243 711L261 711M207 693L225 693M279 693L297 711M-9 639L9 639L27 657L45 657L63 657L81 657L99 657L117 657L135 657L153 675L171 675L189 675L207 693L225 711L243 711L261 693L279 693L297 693L315 711L333 729L351 729L369 729L387 729" stroke="url(#SvgjsLinearGradient3346)" stroke-width="3"></path><path d="M382.5 729 a4.5 4.5 0 1 0 9 0 a4.5 4.5 0 1 0 -9 0zM202.5 675 a4.5 4.5 0 1 0 9 0 a4.5 4.5 0 1 0 -9 0zM256.5 711 a4.5 4.5 0 1 0 9 0 a4.5 4.5 0 1 0 -9 0zM220.5 693 a4.5 4.5 0 1 0 9 0 a4.5 4.5 0 1 0 -9 0zM292.5 711 a4.5 4.5 0 1 0 9 0 a4.5 4.5 0 1 0 -9 0z" fill="url(#SvgjsLinearGradient3346)"></path><path d="M45 441L63 441M-9 441L9 441L27 441L45 441L63 423L81 423L99 423L117 423L135 423L153 405L171 405L189 405L207 405L225 405" stroke="url(#SvgjsLinearGradient3346)" stroke-width="3"></path><path d="M220.5 405 a4.5 4.5 0 1 0 9 0 a4.5 4.5 0 1 0 -9 0zM58.5 441 a4.5 4.5 0 1 0 9 0 a4.5 4.5 0 1 0 -9 0z" fill="url(#SvgjsLinearGradient3346)"></path><path d="M1017 837L1035 819M891 819L909 801L927 801L945 801L963 801L981 801L999 801M783 801L801 819L819 819M297 729L315 747M45 675L63 693M117 675L135 693M837 819L855 801L873 801L891 801M549 783L567 801M477 765L495 783L513 783L531 783L549 801M1593 783L1611 765L1629 765L1647 765L1665 765L1683 765L1701 765L1719 765M1251 819L1269 837L1287 837L1305 837M81 675L99 693L117 693M1305 801L1323 819L1341 819M1089 837L1107 819L1125 819L1143 819L1161 819L1179 819M909 819L927 819L945 819L963 819M1431 783L1449 765L1467 765L1485 765L1503 765L1521 765L1539 765L1557 765L1575 765L1593 765L1611 747L1629 747L1647 747L1665 747L1683 747M1449 783L1467 801L1485 801L1503 801L1521 801L1539 801L1557 801L1575 801L1593 801L1611 801L1629 801L1647 801L1665 801L1683 801L1701 801L1719 801L1737 801L1755 801L1773 783L1791 783L1809 783L1827 783L1845 783L1863 783L1881 783M1233 819L1251 837M1359 801L1377 819L1395 819L1413 819L1431 819L1449 819L1467 837L1485 837L1503 837L1521 837L1539 837L1557 837L1575 837M981 837L999 819L1017 819L1035 801M1071 837L1089 819M1197 819L1215 837L1233 837L1251 855L1269 855L1287 855L1305 855L1323 855L1341 855L1359 855L1377 855M-9 657L9 657L27 675L45 675L63 675L81 675L99 675L117 675L135 675L153 693L171 693L189 693L207 711L225 729L243 729L261 729L279 729L297 729L315 729L333 747L351 747L369 747L387 747L405 747L423 747L441 747L459 747L477 765L495 765L513 765L531 765L549 783L567 783L585 783L603 783L621 783L639 783L657 783L675 783L693 783L711 801L729 801L747 801L765 801L783 801L801 801L819 801L837 819L855 819L873 819L891 819L909 819L927 837L945 837L963 837L981 837L999 837L1017 837L1035 837L1053 837L1071 837L1089 837L1107 837L1125 837L1143 837L1161 837L1179 837L1197 819L1215 819L1233 819L1251 819L1269 819L1287 819L1305 801L1323 801L1341 801L1359 801L1377 801L1395 783L1413 783L1431 783L1449 783L1467 783L1485 783L1503 783L1521 783L1539 783L1557 783L1575 783L1593 783L1611 783" stroke="url(#SvgjsLinearGradient3346)" stroke-width="3"></path><path d="M1606.5 783 a4.5 4.5 0 1 0 9 0 a4.5 4.5 0 1 0 -9 0zM1030.5 819 a4.5 4.5 0 1 0 9 0 a4.5 4.5 0 1 0 -9 0zM994.5 801 a4.5 4.5 0 1 0 9 0 a4.5 4.5 0 1 0 -9 0zM814.5 819 a4.5 4.5 0 1 0 9 0 a4.5 4.5 0 1 0 -9 0zM310.5 747 a4.5 4.5 0 1 0 9 0 a4.5 4.5 0 1 0 -9 0zM58.5 693 a4.5 4.5 0 1 0 9 0 a4.5 4.5 0 1 0 -9 0zM130.5 693 a4.5 4.5 0 1 0 9 0 a4.5 4.5 0 1 0 -9 0zM886.5 801 a4.5 4.5 0 1 0 9 0 a4.5 4.5 0 1 0 -9 0zM562.5 801 a4.5 4.5 0 1 0 9 0 a4.5 4.5 0 1 0 -9 0zM544.5 801 a4.5 4.5 0 1 0 9 0 a4.5 4.5 0 1 0 -9 0zM1714.5 765 a4.5 4.5 0 1 0 9 0 a4.5 4.5 0 1 0 -9 0zM1300.5 837 a4.5 4.5 0 1 0 9 0 a4.5 4.5 0 1 0 -9 0zM112.5 693 a4.5 4.5 0 1 0 9 0 a4.5 4.5 0 1 0 -9 0zM1336.5 819 a4.5 4.5 0 1 0 9 0 a4.5 4.5 0 1 0 -9 0zM1174.5 819 a4.5 4.5 0 1 0 9 0 a4.5 4.5 0 1 0 -9 0zM958.5 819 a4.5 4.5 0 1 0 9 0 a4.5 4.5 0 1 0 -9 0zM1678.5 747 a4.5 4.5 0 1 0 9 0 a4.5 4.5 0 1 0 -9 0zM1876.5 783 a4.5 4.5 0 1 0 9 0 a4.5 4.5 0 1 0 -9 0zM1246.5 837 a4.5 4.5 0 1 0 9 0 a4.5 4.5 0 1 0 -9 0zM1570.5 837 a4.5 4.5 0 1 0 9 0 a4.5 4.5 0 1 0 -9 0zM1030.5 801 a4.5 4.5 0 1 0 9 0 a4.5 4.5 0 1 0 -9 0zM1084.5 819 a4.5 4.5 0 1 0 9 0 a4.5 4.5 0 1 0 -9 0zM1372.5 855 a4.5 4.5 0 1 0 9 0 a4.5 4.5 0 1 0 -9 0z" fill="url(#SvgjsLinearGradient3346)"></path><path d="M423 369L441 351L459 333L477 333L495 333L513 333L531 333L549 333M81 405L99 387M531 369L549 351L567 333L585 333L603 333L621 351L639 351M1413 261L1431 279L1449 279M513 369L531 351M1251 261L1269 261L1287 261L1305 261L1323 261L1341 261L1359 261L1377 279L1395 279L1413 279M1377 261L1395 243L1413 243L1431 243L1449 243L1467 243L1485 261L1503 261L1521 261L1539 261L1557 243L1575 243L1593 243M1017 297L1035 297M1359 243L1377 243M495 369L513 351M351 369L369 351L387 351L405 351L423 351L441 333L459 315M297 387L315 387M225 387L243 369M891 333L909 333M117 405L135 387L153 369L171 369M963 315L981 315M477 369L495 351M1143 279L1161 297M585 369L603 351M459 369L477 351M-9 423L9 423L27 423L45 423L63 405L81 405L99 405L117 405L135 405L153 387L171 387L189 387L207 387L225 387L243 387L261 387L279 387L297 387L315 369L333 369L351 369L369 369L387 369L405 369L423 369L441 369L459 369L477 369L495 369L513 369L531 369L549 369L567 369L585 369L603 369L621 369L639 369L657 351L675 351L693 333L711 333L729 333L747 333L765 333L783 333L801 333L819 333L837 333L855 333L873 333L891 333L909 315L927 315L945 315L963 315L981 297L999 297L1017 297L1035 279L1053 279L1071 279L1089 279L1107 279L1125 279L1143 279L1161 261L1179 261L1197 261L1215 261L1233 261L1251 261L1269 243L1287 243L1305 243L1323 243L1341 243L1359 243L1377 261L1395 261L1413 261L1431 261" stroke="url(#SvgjsLinearGradient3346)" stroke-width="3"></path><path d="M1426.5 261 a4.5 4.5 0 1 0 9 0 a4.5 4.5 0 1 0 -9 0zM544.5 333 a4.5 4.5 0 1 0 9 0 a4.5 4.5 0 1 0 -9 0zM94.5 387 a4.5 4.5 0 1 0 9 0 a4.5 4.5 0 1 0 -9 0zM634.5 351 a4.5 4.5 0 1 0 9 0 a4.5 4.5 0 1 0 -9 0zM1444.5 279 a4.5 4.5 0 1 0 9 0 a4.5 4.5 0 1 0 -9 0zM526.5 351 a4.5 4.5 0 1 0 9 0 a4.5 4.5 0 1 0 -9 0zM1408.5 279 a4.5 4.5 0 1 0 9 0 a4.5 4.5 0 1 0 -9 0zM1588.5 243 a4.5 4.5 0 1 0 9 0 a4.5 4.5 0 1 0 -9 0zM1030.5 297 a4.5 4.5 0 1 0 9 0 a4.5 4.5 0 1 0 -9 0zM1372.5 243 a4.5 4.5 0 1 0 9 0 a4.5 4.5 0 1 0 -9 0zM508.5 351 a4.5 4.5 0 1 0 9 0 a4.5 4.5 0 1 0 -9 0zM454.5 315 a4.5 4.5 0 1 0 9 0 a4.5 4.5 0 1 0 -9 0zM310.5 387 a4.5 4.5 0 1 0 9 0 a4.5 4.5 0 1 0 -9 0zM238.5 369 a4.5 4.5 0 1 0 9 0 a4.5 4.5 0 1 0 -9 0zM904.5 333 a4.5 4.5 0 1 0 9 0 a4.5 4.5 0 1 0 -9 0zM166.5 369 a4.5 4.5 0 1 0 9 0 a4.5 4.5 0 1 0 -9 0zM976.5 315 a4.5 4.5 0 1 0 9 0 a4.5 4.5 0 1 0 -9 0zM490.5 351 a4.5 4.5 0 1 0 9 0 a4.5 4.5 0 1 0 -9 0zM1156.5 297 a4.5 4.5 0 1 0 9 0 a4.5 4.5 0 1 0 -9 0zM598.5 351 a4.5 4.5 0 1 0 9 0 a4.5 4.5 0 1 0 -9 0zM472.5 351 a4.5 4.5 0 1 0 9 0 a4.5 4.5 0 1 0 -9 0z" fill="url(#SvgjsLinearGradient3346)"></path><path d="M153 711L171 729M225 747L243 765M135 711L153 729M171 711L189 711M261 747L279 747L297 747M-9 675L9 675L27 693L45 711L63 711L81 711L99 711L117 711L135 711L153 711L171 711L189 729L207 729L225 747L243 747L261 747L279 765L297 765L315 765L333 765L351 765L369 765L387 765L405 765L423 765L441 765L459 765" stroke="url(#SvgjsLinearGradient3346)" stroke-width="3"></path><path d="M454.5 765 a4.5 4.5 0 1 0 9 0 a4.5 4.5 0 1 0 -9 0zM166.5 729 a4.5 4.5 0 1 0 9 0 a4.5 4.5 0 1 0 -9 0zM238.5 765 a4.5 4.5 0 1 0 9 0 a4.5 4.5 0 1 0 -9 0zM148.5 729 a4.5 4.5 0 1 0 9 0 a4.5 4.5 0 1 0 -9 0zM184.5 711 a4.5 4.5 0 1 0 9 0 a4.5 4.5 0 1 0 -9 0zM292.5 747 a4.5 4.5 0 1 0 9 0 a4.5 4.5 0 1 0 -9 0z" fill="url(#SvgjsLinearGradient3346)"></path><path d="M27 405L45 405M189 351L207 369L225 369M81 369L99 369M387 333L405 333L423 333M261 369L279 351M333 351L351 351M-9 405L9 405L27 405L45 387L63 369L81 369L99 351L117 351L135 351L153 351L171 351L189 351L207 351L225 351L243 351L261 369L279 369L297 369L315 351L333 351L351 333L369 333L387 333L405 315" stroke="url(#SvgjsLinearGradient3346)" stroke-width="3"></path><path d="M400.5 315 a4.5 4.5 0 1 0 9 0 a4.5 4.5 0 1 0 -9 0zM40.5 405 a4.5 4.5 0 1 0 9 0 a4.5 4.5 0 1 0 -9 0zM220.5 369 a4.5 4.5 0 1 0 9 0 a4.5 4.5 0 1 0 -9 0zM94.5 369 a4.5 4.5 0 1 0 9 0 a4.5 4.5 0 1 0 -9 0zM418.5 333 a4.5 4.5 0 1 0 9 0 a4.5 4.5 0 1 0 -9 0zM274.5 351 a4.5 4.5 0 1 0 9 0 a4.5 4.5 0 1 0 -9 0zM346.5 351 a4.5 4.5 0 1 0 9 0 a4.5 4.5 0 1 0 -9 0z" fill="url(#SvgjsLinearGradient3346)"></path><path d="M117 729L135 729M81 729L99 747L117 747M189 765L207 765L225 765M-9 693L9 693L27 711L45 729L63 729L81 729L99 729L117 729L135 747L153 747L171 765L189 765L207 747" stroke="url(#SvgjsLinearGradient3346)" stroke-width="3"></path><path d="M202.5 747 a4.5 4.5 0 1 0 9 0 a4.5 4.5 0 1 0 -9 0zM130.5 729 a4.5 4.5 0 1 0 9 0 a4.5 4.5 0 1 0 -9 0zM112.5 747 a4.5 4.5 0 1 0 9 0 a4.5 4.5 0 1 0 -9 0zM220.5 765 a4.5 4.5 0 1 0 9 0 a4.5 4.5 0 1 0 -9 0z" fill="url(#SvgjsLinearGradient3346)"></path><path d="M1485 225L1503 243M945 297L963 279L981 261L999 261L1017 261M1791 261L1809 261L1827 261L1845 261L1863 261L1881 261M837 315L855 297L873 297L891 297L909 279L927 279L945 279L963 261M747 315L765 297L783 297L801 297L819 297L837 297L855 279L873 279L891 279L909 261L927 261L945 261L963 243M1773 243L1791 243L1809 243L1827 243L1845 243L1863 243L1881 243M675 315L693 297L711 297L729 297M297 333L315 315M567 315L585 297L603 297L621 297L639 297L657 297L675 297L693 279L711 279L729 279L747 279L765 279L783 279M531 297L549 297L567 297L585 279L603 279L621 261L639 261L657 261L675 261L693 261L711 261L729 261L747 261L765 261L783 261L801 279L819 279L837 279L855 261L873 261L891 261L909 243L927 243L945 243M621 333L639 315L657 315M1737 243L1755 261L1773 261L1791 279L1809 297M459 297L477 279L495 279L513 279L531 279L549 279L567 279L585 261L603 261M207 333L225 315L243 315M1827 279L1845 297L1863 297L1881 297M1521 225L1539 243M135 333L153 315L171 315L189 315L207 315M1701 243L1719 261L1737 261M441 297L459 279L477 261L495 261L513 261L531 261L549 261L567 261L585 243M117 333L135 315M513 297L531 315M657 333L675 333M423 297L441 315M405 297L423 279L441 279L459 261L477 243L495 243L513 243L531 243L549 243M1665 243L1683 261L1701 261L1719 279M1629 243L1647 261L1665 261L1683 279L1701 279M-9 387L9 387L27 387L45 369L63 351L81 351L99 333L117 333L135 333L153 333L171 333L189 333L207 333L225 333L243 333L261 333L279 333L297 333L315 333L333 333L351 315L369 315L387 315L405 297L423 297L441 297L459 297L477 297L495 297L513 297L531 297L549 315L567 315L585 315L603 315L621 333L639 333L657 333L675 315L693 315L711 315L729 315L747 315L765 315L783 315L801 315L819 315L837 315L855 315L873 315L891 315L909 297L927 297L945 297L963 297L981 279L999 279L1017 279L1035 261L1053 261L1071 261L1089 261L1107 261L1125 261L1143 261L1161 243L1179 243L1197 243L1215 243L1233 243L1251 243L1269 225L1287 225L1305 225L1323 225L1341 225L1359 225L1377 225L1395 225L1413 225L1431 225L1449 225L1467 225L1485 225L1503 225L1521 225L1539 225L1557 225L1575 225L1593 225L1611 225L1629 243L1647 243L1665 243L1683 243L1701 243L1719 243L1737 243L1755 243L1773 243L1791 261L1809 279L1827 279L1845 279" stroke="url(#SvgjsLinearGradient3346)" stroke-width="3"></path><path d="M1840.5 279 a4.5 4.5 0 1 0 9 0 a4.5 4.5 0 1 0 -9 0zM1498.5 243 a4.5 4.5 0 1 0 9 0 a4.5 4.5 0 1 0 -9 0zM1012.5 261 a4.5 4.5 0 1 0 9 0 a4.5 4.5 0 1 0 -9 0zM1876.5 261 a4.5 4.5 0 1 0 9 0 a4.5 4.5 0 1 0 -9 0zM958.5 261 a4.5 4.5 0 1 0 9 0 a4.5 4.5 0 1 0 -9 0zM958.5 243 a4.5 4.5 0 1 0 9 0 a4.5 4.5 0 1 0 -9 0zM1876.5 243 a4.5 4.5 0 1 0 9 0 a4.5 4.5 0 1 0 -9 0zM724.5 297 a4.5 4.5 0 1 0 9 0 a4.5 4.5 0 1 0 -9 0zM310.5 315 a4.5 4.5 0 1 0 9 0 a4.5 4.5 0 1 0 -9 0zM778.5 279 a4.5 4.5 0 1 0 9 0 a4.5 4.5 0 1 0 -9 0zM940.5 243 a4.5 4.5 0 1 0 9 0 a4.5 4.5 0 1 0 -9 0zM652.5 315 a4.5 4.5 0 1 0 9 0 a4.5 4.5 0 1 0 -9 0zM1804.5 297 a4.5 4.5 0 1 0 9 0 a4.5 4.5 0 1 0 -9 0zM598.5 261 a4.5 4.5 0 1 0 9 0 a4.5 4.5 0 1 0 -9 0zM238.5 315 a4.5 4.5 0 1 0 9 0 a4.5 4.5 0 1 0 -9 0zM1876.5 297 a4.5 4.5 0 1 0 9 0 a4.5 4.5 0 1 0 -9 0zM1534.5 243 a4.5 4.5 0 1 0 9 0 a4.5 4.5 0 1 0 -9 0zM202.5 315 a4.5 4.5 0 1 0 9 0 a4.5 4.5 0 1 0 -9 0zM1732.5 261 a4.5 4.5 0 1 0 9 0 a4.5 4.5 0 1 0 -9 0zM580.5 243 a4.5 4.5 0 1 0 9 0 a4.5 4.5 0 1 0 -9 0zM130.5 315 a4.5 4.5 0 1 0 9 0 a4.5 4.5 0 1 0 -9 0zM526.5 315 a4.5 4.5 0 1 0 9 0 a4.5 4.5 0 1 0 -9 0zM670.5 333 a4.5 4.5 0 1 0 9 0 a4.5 4.5 0 1 0 -9 0zM436.5 315 a4.5 4.5 0 1 0 9 0 a4.5 4.5 0 1 0 -9 0zM544.5 243 a4.5 4.5 0 1 0 9 0 a4.5 4.5 0 1 0 -9 0zM1714.5 279 a4.5 4.5 0 1 0 9 0 a4.5 4.5 0 1 0 -9 0zM1696.5 279 a4.5 4.5 0 1 0 9 0 a4.5 4.5 0 1 0 -9 0z" fill="url(#SvgjsLinearGradient3346)"></path><path d="M729 819L747 819L765 819L783 819M621 801L639 819L657 819L675 819L693 819L711 837L729 837M45 747L63 747L81 747M459 801L477 801L495 801L513 801L531 801M333 783L351 801L369 801M603 801L621 819L639 837L657 837M585 801L603 819L621 837M567 819L585 819L603 837M441 783L459 783M-9 711L9 711L27 729L45 747L63 765L81 765L99 765L117 765L135 765L153 765L171 783L189 783L207 783L225 783L243 783L261 783L279 783L297 783L315 783L333 783L351 783L369 783L387 783L405 783L423 783L441 783L459 801L477 819L495 819L513 819L531 819L549 819L567 819L585 801L603 801L621 801L639 801L657 801L675 801L693 801L711 819L729 819L747 837L765 837L783 837L801 837L819 837L837 837L855 837L873 837L891 837L909 837L927 855L945 855L963 855L981 855L999 855L1017 855L1035 855L1053 855L1071 855L1089 855L1107 855L1125 855L1143 855" stroke="url(#SvgjsLinearGradient3346)" stroke-width="3"></path><path d="M1138.5 855 a4.5 4.5 0 1 0 9 0 a4.5 4.5 0 1 0 -9 0zM778.5 819 a4.5 4.5 0 1 0 9 0 a4.5 4.5 0 1 0 -9 0zM724.5 837 a4.5 4.5 0 1 0 9 0 a4.5 4.5 0 1 0 -9 0zM76.5 747 a4.5 4.5 0 1 0 9 0 a4.5 4.5 0 1 0 -9 0zM526.5 801 a4.5 4.5 0 1 0 9 0 a4.5 4.5 0 1 0 -9 0zM364.5 801 a4.5 4.5 0 1 0 9 0 a4.5 4.5 0 1 0 -9 0zM652.5 837 a4.5 4.5 0 1 0 9 0 a4.5 4.5 0 1 0 -9 0zM616.5 837 a4.5 4.5 0 1 0 9 0 a4.5 4.5 0 1 0 -9 0zM598.5 837 a4.5 4.5 0 1 0 9 0 a4.5 4.5 0 1 0 -9 0zM454.5 783 a4.5 4.5 0 1 0 9 0 a4.5 4.5 0 1 0 -9 0z" fill="url(#SvgjsLinearGradient3346)"></path><path d="M279 315L297 315M99 315L117 315M171 297L189 279L207 279M243 297L261 297L279 297M297 297L315 279L333 279L351 279M-9 369L9 369L27 369L45 351L63 333L81 333L99 315L117 297L135 297L153 297L171 297L189 297L207 297L225 297L243 297L261 315L279 315L297 297L315 297L333 315" stroke="url(#SvgjsLinearGradient3346)" stroke-width="3"></path><path d="M328.5 315 a4.5 4.5 0 1 0 9 0 a4.5 4.5 0 1 0 -9 0zM292.5 315 a4.5 4.5 0 1 0 9 0 a4.5 4.5 0 1 0 -9 0zM112.5 315 a4.5 4.5 0 1 0 9 0 a4.5 4.5 0 1 0 -9 0zM202.5 279 a4.5 4.5 0 1 0 9 0 a4.5 4.5 0 1 0 -9 0zM274.5 297 a4.5 4.5 0 1 0 9 0 a4.5 4.5 0 1 0 -9 0zM346.5 279 a4.5 4.5 0 1 0 9 0 a4.5 4.5 0 1 0 -9 0z" fill="url(#SvgjsLinearGradient3346)"></path><path d="M315 801L333 801M567 837L585 837M1179 873L1197 891L1215 891L1233 891L1251 891M1197 873L1215 855L1233 855M387 801L405 819L423 819L441 819M1143 873L1161 891L1179 891L1197 909L1215 909L1233 909L1251 909L1269 909L1287 909L1305 909L1323 909L1341 909L1359 909L1377 909L1395 909L1413 909L1431 909L1449 909L1467 909M1125 873L1143 891L1161 909L1179 909L1197 927L1215 927L1233 927L1251 927L1269 927L1287 927L1305 927L1323 927L1341 927L1359 927L1377 927L1395 927L1413 927L1431 927L1449 927L1467 927M1161 873L1179 855L1197 855M369 819L387 819M675 855L693 837M-9 729L9 729L27 747L45 765L63 783L81 783L99 783L117 783L135 783L153 783L171 801L189 801L207 801L225 801L243 801L261 801L279 801L297 801L315 801L333 819L351 819L369 819L387 801L405 801L423 801L441 801L459 819L477 837L495 837L513 837L531 837L549 837L567 837L585 855L603 855L621 855L639 855L657 855L675 855L693 855L711 855L729 855L747 855L765 855L783 855L801 855L819 855L837 855L855 855L873 855L891 855L909 855L927 873L945 873L963 873L981 873L999 873L1017 873L1035 873L1053 873L1071 873L1089 873L1107 873L1125 873L1143 873L1161 873L1179 873L1197 873L1215 873L1233 873" stroke="url(#SvgjsLinearGradient3346)" stroke-width="3"></path><path d="M1228.5 873 a4.5 4.5 0 1 0 9 0 a4.5 4.5 0 1 0 -9 0zM328.5 801 a4.5 4.5 0 1 0 9 0 a4.5 4.5 0 1 0 -9 0zM580.5 837 a4.5 4.5 0 1 0 9 0 a4.5 4.5 0 1 0 -9 0zM1246.5 891 a4.5 4.5 0 1 0 9 0 a4.5 4.5 0 1 0 -9 0zM1228.5 855 a4.5 4.5 0 1 0 9 0 a4.5 4.5 0 1 0 -9 0zM436.5 819 a4.5 4.5 0 1 0 9 0 a4.5 4.5 0 1 0 -9 0zM1462.5 909 a4.5 4.5 0 1 0 9 0 a4.5 4.5 0 1 0 -9 0zM1462.5 927 a4.5 4.5 0 1 0 9 0 a4.5 4.5 0 1 0 -9 0zM1192.5 855 a4.5 4.5 0 1 0 9 0 a4.5 4.5 0 1 0 -9 0zM382.5 819 a4.5 4.5 0 1 0 9 0 a4.5 4.5 0 1 0 -9 0zM688.5 837 a4.5 4.5 0 1 0 9 0 a4.5 4.5 0 1 0 -9 0z" fill="url(#SvgjsLinearGradient3346)"></path><path d="M-9 351L9 351L27 351L45 333L63 315L81 315L99 297L117 279L135 279" stroke="url(#SvgjsLinearGradient3346)" stroke-width="3"></path><path d="M130.5 279 a4.5 4.5 0 1 0 9 0 a4.5 4.5 0 1 0 -9 0z" fill="url(#SvgjsLinearGradient3346)"></path><path d="M243 819L261 837L279 837M297 819L315 837M1089 891L1107 909L1125 927L1143 945L1161 945L1179 945L1197 945L1215 945L1233 945L1251 945L1269 945L1287 945M1017 891L1035 909L1053 909L1071 909L1089 909L1107 927L1125 945L1143 963L1161 963L1179 963L1197 963L1215 963L1233 963M441 837L459 855M891 873L909 891L927 909L945 909L963 909L981 909L999 909L1017 909L1035 927L1053 927M873 873L891 891L909 909L927 927L945 927L963 927L981 927L999 927M423 837L441 855M-9 747L9 747L27 765L45 783L63 801L81 801L99 801L117 801L135 801L153 801L171 819L189 819L207 819L225 819L243 819L261 819L279 819L297 819L315 819L333 837L351 837L369 837L387 837L405 837L423 837L441 837L459 837L477 855L495 855L513 855L531 855L549 855L567 855L585 873L603 873L621 873L639 873L657 873L675 873L693 873L711 873L729 873L747 873L765 873L783 873L801 873L819 873L837 873L855 873L873 873L891 873L909 873L927 891L945 891L963 891L981 891L999 891L1017 891L1035 891L1053 891L1071 891L1089 891L1107 891" stroke="url(#SvgjsLinearGradient3346)" stroke-width="3"></path><path d="M1102.5 891 a4.5 4.5 0 1 0 9 0 a4.5 4.5 0 1 0 -9 0zM274.5 837 a4.5 4.5 0 1 0 9 0 a4.5 4.5 0 1 0 -9 0zM310.5 837 a4.5 4.5 0 1 0 9 0 a4.5 4.5 0 1 0 -9 0zM1282.5 945 a4.5 4.5 0 1 0 9 0 a4.5 4.5 0 1 0 -9 0zM1228.5 963 a4.5 4.5 0 1 0 9 0 a4.5 4.5 0 1 0 -9 0zM454.5 855 a4.5 4.5 0 1 0 9 0 a4.5 4.5 0 1 0 -9 0zM1048.5 927 a4.5 4.5 0 1 0 9 0 a4.5 4.5 0 1 0 -9 0zM994.5 927 a4.5 4.5 0 1 0 9 0 a4.5 4.5 0 1 0 -9 0zM436.5 855 a4.5 4.5 0 1 0 9 0 a4.5 4.5 0 1 0 -9 0z" fill="url(#SvgjsLinearGradient3346)"></path><path d="M1755 225L1773 207L1791 207L1809 207L1827 207L1845 207L1863 207L1881 207M423 207L441 225L459 243M963 225L981 225L999 225L1017 225L1035 225L1053 225L1071 225M369 225L387 243L405 243M873 225L891 243M567 225L585 207M1683 225L1701 225L1719 225L1737 225M1467 207L1485 189L1503 189L1521 189L1539 189L1557 189L1575 189L1593 189L1611 189L1629 189L1647 207L1665 207L1683 207L1701 189M1161 225L1179 207M729 225L747 207L765 207L783 207M405 225L423 225L441 243M945 225L963 207L981 207L999 207L1017 207L1035 207L1053 207L1071 207L1089 207L1107 207L1125 207M693 243L711 243L729 243M603 243L621 225L639 225L657 225L675 225L693 225L711 207L729 207M855 225L873 243M801 225L819 243L837 243L855 243M549 225L567 207L585 189L603 189L621 207L639 207L657 207M837 225L855 207L873 207L891 207L909 207L927 207L945 207M1431 207L1449 189L1467 189M513 207L531 225M153 261L171 279M225 261L243 279M1737 207L1755 207L1773 189L1791 189L1809 189L1827 189L1845 189L1863 189L1881 189M279 261L297 279M1125 243L1143 225L1161 207M-9 333L9 333L27 333L45 315L63 297L81 297L99 279L117 261L135 261L153 261L171 261L189 261L207 261L225 261L243 261L261 261L279 261L297 261L315 243L333 243L351 243L369 225L387 225L405 225L423 207L441 207L459 207L477 207L495 207L513 207L531 207L549 225L567 225L585 225L603 243L621 243L639 243L657 243L675 243L693 243L711 225L729 225L747 225L765 225L783 225L801 225L819 225L837 225L855 225L873 225L891 225L909 225L927 225L945 225L963 225L981 243L999 243L1017 243L1035 243L1053 243L1071 243L1089 243L1107 243L1125 243L1143 243L1161 225L1179 225L1197 225L1215 225L1233 225L1251 225L1269 207L1287 207L1305 207L1323 207L1341 207L1359 207L1377 207L1395 207L1413 207L1431 207L1449 207L1467 207L1485 207L1503 207L1521 207L1539 207L1557 207L1575 207L1593 207L1611 207L1629 207L1647 225L1665 225L1683 225L1701 207L1719 207L1737 207L1755 225L1773 225L1791 225L1809 225L1827 225" stroke="url(#SvgjsLinearGradient3346)" stroke-width="3"></path><path d="M1822.5 225 a4.5 4.5 0 1 0 9 0 a4.5 4.5 0 1 0 -9 0zM1876.5 207 a4.5 4.5 0 1 0 9 0 a4.5 4.5 0 1 0 -9 0zM454.5 243 a4.5 4.5 0 1 0 9 0 a4.5 4.5 0 1 0 -9 0zM1066.5 225 a4.5 4.5 0 1 0 9 0 a4.5 4.5 0 1 0 -9 0zM400.5 243 a4.5 4.5 0 1 0 9 0 a4.5 4.5 0 1 0 -9 0zM886.5 243 a4.5 4.5 0 1 0 9 0 a4.5 4.5 0 1 0 -9 0zM580.5 207 a4.5 4.5 0 1 0 9 0 a4.5 4.5 0 1 0 -9 0zM1732.5 225 a4.5 4.5 0 1 0 9 0 a4.5 4.5 0 1 0 -9 0zM1696.5 189 a4.5 4.5 0 1 0 9 0 a4.5 4.5 0 1 0 -9 0zM1174.5 207 a4.5 4.5 0 1 0 9 0 a4.5 4.5 0 1 0 -9 0zM778.5 207 a4.5 4.5 0 1 0 9 0 a4.5 4.5 0 1 0 -9 0zM436.5 243 a4.5 4.5 0 1 0 9 0 a4.5 4.5 0 1 0 -9 0zM1120.5 207 a4.5 4.5 0 1 0 9 0 a4.5 4.5 0 1 0 -9 0zM724.5 243 a4.5 4.5 0 1 0 9 0 a4.5 4.5 0 1 0 -9 0zM724.5 207 a4.5 4.5 0 1 0 9 0 a4.5 4.5 0 1 0 -9 0zM868.5 243 a4.5 4.5 0 1 0 9 0 a4.5 4.5 0 1 0 -9 0zM850.5 243 a4.5 4.5 0 1 0 9 0 a4.5 4.5 0 1 0 -9 0zM652.5 207 a4.5 4.5 0 1 0 9 0 a4.5 4.5 0 1 0 -9 0zM940.5 207 a4.5 4.5 0 1 0 9 0 a4.5 4.5 0 1 0 -9 0zM1462.5 189 a4.5 4.5 0 1 0 9 0 a4.5 4.5 0 1 0 -9 0zM526.5 225 a4.5 4.5 0 1 0 9 0 a4.5 4.5 0 1 0 -9 0zM166.5 279 a4.5 4.5 0 1 0 9 0 a4.5 4.5 0 1 0 -9 0zM238.5 279 a4.5 4.5 0 1 0 9 0 a4.5 4.5 0 1 0 -9 0zM1876.5 189 a4.5 4.5 0 1 0 9 0 a4.5 4.5 0 1 0 -9 0zM292.5 279 a4.5 4.5 0 1 0 9 0 a4.5 4.5 0 1 0 -9 0zM1156.5 207 a4.5 4.5 0 1 0 9 0 a4.5 4.5 0 1 0 -9 0z" fill="url(#SvgjsLinearGradient3346)"></path><path d="M477 873L495 891L513 909M315 855L333 873L351 873M513 873L531 891L549 891L567 891L585 909L603 909L621 909L639 909L657 909L675 909L693 909L711 909L729 909L747 909L765 909L783 909M459 873L477 891M297 855L315 873M225 855L243 837M207 837L225 837M387 855L405 873M819 891L837 909M369 855L387 873L405 891M441 873L459 891L477 909L495 909M801 891L819 909L837 927L855 927L873 927L891 927L909 927L927 945L945 945L963 945L981 945M-9 765L9 765L27 783L45 801L63 819L81 819L99 819L117 819L135 819L153 819L171 837L189 837L207 837L225 855L243 855L261 855L279 855L297 855L315 855L333 855L351 855L369 855L387 855L405 855L423 873L441 873L459 873L477 873L495 873L513 873L531 873L549 873L567 873L585 891L603 891L621 891L639 891L657 891L675 891L693 891L711 891L729 891L747 891L765 891L783 891L801 891L819 891L837 891L855 891" stroke="url(#SvgjsLinearGradient3346)" stroke-width="3"></path><path d="M850.5 891 a4.5 4.5 0 1 0 9 0 a4.5 4.5 0 1 0 -9 0zM508.5 909 a4.5 4.5 0 1 0 9 0 a4.5 4.5 0 1 0 -9 0zM346.5 873 a4.5 4.5 0 1 0 9 0 a4.5 4.5 0 1 0 -9 0zM778.5 909 a4.5 4.5 0 1 0 9 0 a4.5 4.5 0 1 0 -9 0zM472.5 891 a4.5 4.5 0 1 0 9 0 a4.5 4.5 0 1 0 -9 0zM310.5 873 a4.5 4.5 0 1 0 9 0 a4.5 4.5 0 1 0 -9 0zM238.5 837 a4.5 4.5 0 1 0 9 0 a4.5 4.5 0 1 0 -9 0zM220.5 837 a4.5 4.5 0 1 0 9 0 a4.5 4.5 0 1 0 -9 0zM400.5 873 a4.5 4.5 0 1 0 9 0 a4.5 4.5 0 1 0 -9 0zM832.5 909 a4.5 4.5 0 1 0 9 0 a4.5 4.5 0 1 0 -9 0zM400.5 891 a4.5 4.5 0 1 0 9 0 a4.5 4.5 0 1 0 -9 0zM490.5 909 a4.5 4.5 0 1 0 9 0 a4.5 4.5 0 1 0 -9 0zM976.5 945 a4.5 4.5 0 1 0 9 0 a4.5 4.5 0 1 0 -9 0z" fill="url(#SvgjsLinearGradient3346)"></path><path d="M-9 315L9 315L27 315L45 297" stroke="url(#SvgjsLinearGradient3346)" stroke-width="3"></path><path d="M40.5 297 a4.5 4.5 0 1 0 9 0 a4.5 4.5 0 1 0 -9 0z" fill="url(#SvgjsLinearGradient3346)"></path><path d="M189 855L207 855M369 891L387 891M351 891L369 909M279 873L297 873M405 909L423 909M-9 783L9 783L27 801L45 819L63 837L81 837L99 837L117 837L135 837L153 837L171 855L189 855L207 873L225 873L243 873L261 873L279 873L297 891L315 891L333 891L351 891L369 891L387 909L405 909L423 891" stroke="url(#SvgjsLinearGradient3346)" stroke-width="3"></path><path d="M418.5 891 a4.5 4.5 0 1 0 9 0 a4.5 4.5 0 1 0 -9 0zM202.5 855 a4.5 4.5 0 1 0 9 0 a4.5 4.5 0 1 0 -9 0zM382.5 891 a4.5 4.5 0 1 0 9 0 a4.5 4.5 0 1 0 -9 0zM364.5 909 a4.5 4.5 0 1 0 9 0 a4.5 4.5 0 1 0 -9 0zM292.5 873 a4.5 4.5 0 1 0 9 0 a4.5 4.5 0 1 0 -9 0zM418.5 909 a4.5 4.5 0 1 0 9 0 a4.5 4.5 0 1 0 -9 0z" fill="url(#SvgjsLinearGradient3346)"></path><path d="M459 189L477 171L495 171L513 171L531 171L549 171L567 153L585 153L603 153L621 153L639 153L657 153L675 153L693 153L711 153L729 153L747 153L765 153L783 153M1503 171L1521 153M819 189L837 171L855 171M729 189L747 171L765 171L783 171L801 171L819 171L837 153L855 153L873 153L891 153L909 153L927 171L945 171L963 153L981 153L999 153L1017 153L1035 153L1053 153L1071 153M1305 189L1323 171L1341 171L1359 171L1377 171L1395 171L1413 171L1431 153L1449 153L1467 153L1485 135L1503 135L1521 135L1539 135L1557 135M441 189L459 171L477 153L495 153L513 153L531 153L549 153L567 135M279 243L297 225L315 207L333 207L351 207L369 189L387 189L405 189L423 171L441 171L459 153L477 135L495 135L513 135L531 135L549 117L567 117L585 99L603 99L621 99L639 99L657 99L675 99L693 99L711 99L729 99L747 99L765 99L783 99L801 99L819 99L837 99L855 99L873 99L891 99L909 99L927 99L945 99L963 99L981 99L999 99L1017 99L1035 99M45 279L63 261L81 261L99 243M171 243L189 225M1179 189L1197 189L1215 189L1233 189L1251 189L1269 171L1287 171L1305 171L1323 153L1341 153L1359 153L1377 153L1395 135L1413 135L1431 135L1449 135L1467 135L1485 117L1503 117L1521 117L1539 117L1557 117L1575 117L1593 117L1611 117M1161 189L1179 171L1197 153L1215 153L1233 153L1251 153L1269 153L1287 153L1305 153L1323 135L1341 135L1359 135L1377 135L1395 117L1413 117L1431 117L1449 117L1467 117L1485 99L1503 99M1485 171L1503 153M621 189L639 171L657 171L675 171L693 171M1413 189L1431 189M1107 189L1125 171L1143 171L1161 171L1179 153L1197 135L1215 135L1233 135L1251 135L1269 135L1287 135L1305 135L1323 117L1341 117M675 189L693 207M225 243L243 225L261 225L279 225L297 207L315 189L333 189L351 189L369 171L387 171L405 171L423 153L441 153L459 135L477 117L495 117L513 117L531 117L549 99L567 99L585 81L603 81L621 81L639 81L657 63L675 63L693 63L711 63L729 81L747 81L765 81L783 81L801 81L819 81L837 81L855 81L873 81L891 81M1593 171L1611 153L1629 135L1647 135L1665 135L1683 135L1701 135L1719 135L1737 135M873 189L891 171L909 171M117 243L135 225L153 225L171 225L189 207L207 207L225 207L243 207L261 207M1575 171L1593 153L1611 135M603 171L621 171M1557 171L1575 153L1593 135M-9 297L9 297L27 297L45 279L63 279L81 279L99 261L117 243L135 243L153 243L171 243L189 243L207 243L225 243L243 243L261 243L279 243L297 243L315 225L333 225L351 225L369 207L387 207L405 207L423 189L441 189L459 189L477 189L495 189L513 189L531 189L549 189L567 171L585 171L603 171L621 189L639 189L657 189L675 189L693 189L711 189L729 189L747 189L765 189L783 189L801 189L819 189L837 189L855 189L873 189L891 189L909 189L927 189L945 189L963 189L981 189L999 189L1017 189L1035 189L1053 189L1071 189L1089 189L1107 189L1125 189L1143 189L1161 189L1179 189L1197 207L1215 207L1233 207L1251 207L1269 189L1287 189L1305 189L1323 189L1341 189L1359 189L1377 189L1395 189L1413 189L1431 171L1449 171L1467 171L1485 171L1503 171L1521 171L1539 171L1557 171L1575 171L1593 171L1611 171L1629 171" stroke="url(#SvgjsLinearGradient3346)" stroke-width="3"></path><path d="M1624.5 171 a4.5 4.5 0 1 0 9 0 a4.5 4.5 0 1 0 -9 0zM778.5 153 a4.5 4.5 0 1 0 9 0 a4.5 4.5 0 1 0 -9 0zM1516.5 153 a4.5 4.5 0 1 0 9 0 a4.5 4.5 0 1 0 -9 0zM850.5 171 a4.5 4.5 0 1 0 9 0 a4.5 4.5 0 1 0 -9 0zM1066.5 153 a4.5 4.5 0 1 0 9 0 a4.5 4.5 0 1 0 -9 0zM1552.5 135 a4.5 4.5 0 1 0 9 0 a4.5 4.5 0 1 0 -9 0zM562.5 135 a4.5 4.5 0 1 0 9 0 a4.5 4.5 0 1 0 -9 0zM1030.5 99 a4.5 4.5 0 1 0 9 0 a4.5 4.5 0 1 0 -9 0zM94.5 243 a4.5 4.5 0 1 0 9 0 a4.5 4.5 0 1 0 -9 0zM184.5 225 a4.5 4.5 0 1 0 9 0 a4.5 4.5 0 1 0 -9 0zM1606.5 117 a4.5 4.5 0 1 0 9 0 a4.5 4.5 0 1 0 -9 0zM1498.5 99 a4.5 4.5 0 1 0 9 0 a4.5 4.5 0 1 0 -9 0zM1498.5 153 a4.5 4.5 0 1 0 9 0 a4.5 4.5 0 1 0 -9 0zM688.5 171 a4.5 4.5 0 1 0 9 0 a4.5 4.5 0 1 0 -9 0zM1426.5 189 a4.5 4.5 0 1 0 9 0 a4.5 4.5 0 1 0 -9 0zM1336.5 117 a4.5 4.5 0 1 0 9 0 a4.5 4.5 0 1 0 -9 0zM688.5 207 a4.5 4.5 0 1 0 9 0 a4.5 4.5 0 1 0 -9 0zM886.5 81 a4.5 4.5 0 1 0 9 0 a4.5 4.5 0 1 0 -9 0zM1732.5 135 a4.5 4.5 0 1 0 9 0 a4.5 4.5 0 1 0 -9 0zM904.5 171 a4.5 4.5 0 1 0 9 0 a4.5 4.5 0 1 0 -9 0zM256.5 207 a4.5 4.5 0 1 0 9 0 a4.5 4.5 0 1 0 -9 0zM1606.5 135 a4.5 4.5 0 1 0 9 0 a4.5 4.5 0 1 0 -9 0zM616.5 171 a4.5 4.5 0 1 0 9 0 a4.5 4.5 0 1 0 -9 0zM1588.5 135 a4.5 4.5 0 1 0 9 0 a4.5 4.5 0 1 0 -9 0z" fill="url(#SvgjsLinearGradient3346)"></path><path d="M135 855L153 873L171 891L189 891L207 909M297 909L315 927L333 927M261 891L279 909L297 927L315 945L333 945M117 855L135 873L153 891L171 909M243 891L261 909L279 927M-9 801L9 801L27 819L45 837L63 855L81 855L99 855L117 855L135 855L153 855L171 873L189 873L207 891L225 891L243 891L261 891L279 891L297 909L315 909L333 909" stroke="url(#SvgjsLinearGradient3346)" stroke-width="3"></path><path d="M328.5 909 a4.5 4.5 0 1 0 9 0 a4.5 4.5 0 1 0 -9 0zM202.5 909 a4.5 4.5 0 1 0 9 0 a4.5 4.5 0 1 0 -9 0zM328.5 927 a4.5 4.5 0 1 0 9 0 a4.5 4.5 0 1 0 -9 0zM328.5 945 a4.5 4.5 0 1 0 9 0 a4.5 4.5 0 1 0 -9 0zM166.5 909 a4.5 4.5 0 1 0 9 0 a4.5 4.5 0 1 0 -9 0zM274.5 927 a4.5 4.5 0 1 0 9 0 a4.5 4.5 0 1 0 -9 0z" fill="url(#SvgjsLinearGradient3346)"></path></g></g><defs><mask id="SvgjsMask3345"><rect width="1920" height="1080" fill="#ffffff"></rect></mask><linearGradient x1="0" y1="540" x2="1920" y2="540" gradientUnits="userSpaceOnUse" id="SvgjsLinearGradient3346"><stop stop-color="#3a7cc3" offset="0"></stop><stop stop-color="#dd1133" offset="1"></stop></linearGradient><mask id="SvgjsMask3347"><rect width="1920" height="1080" fill="white"></rect><path d="M978.75 567 a2.25 2.25 0 1 0 4.5 0 a2.25 2.25 0 1 0 -4.5 0zM492.75 549 a2.25 2.25 0 1 0 4.5 0 a2.25 2.25 0 1 0 -4.5 0zM654.75 549 a2.25 2.25 0 1 0 4.5 0 a2.25 2.25 0 1 0 -4.5 0zM204.75 549 a2.25 2.25 0 1 0 4.5 0 a2.25 2.25 0 1 0 -4.5 0zM978.75 549 a2.25 2.25 0 1 0 4.5 0 a2.25 2.25 0 1 0 -4.5 0zM546.75 531 a2.25 2.25 0 1 0 4.5 0 a2.25 2.25 0 1 0 -4.5 0zM978.75 531 a2.25 2.25 0 1 0 4.5 0 a2.25 2.25 0 1 0 -4.5 0zM942.75 531 a2.25 2.25 0 1 0 4.5 0 a2.25 2.25 0 1 0 -4.5 0zM942.75 549 a2.25 2.25 0 1 0 4.5 0 a2.25 2.25 0 1 0 -4.5 0zM258.75 549 a2.25 2.25 0 1 0 4.5 0 a2.25 2.25 0 1 0 -4.5 0zM168.75 531 a2.25 2.25 0 1 0 4.5 0 a2.25 2.25 0 1 0 -4.5 0zM708.75 549 a2.25 2.25 0 1 0 4.5 0 a2.25 2.25 0 1 0 -4.5 0zM780.75 531 a2.25 2.25 0 1 0 4.5 0 a2.25 2.25 0 1 0 -4.5 0zM888.75 549 a2.25 2.25 0 1 0 4.5 0 a2.25 2.25 0 1 0 -4.5 0zM708.75 531 a2.25 2.25 0 1 0 4.5 0 a2.25 2.25 0 1 0 -4.5 0z" fill="black"></path><path d="M1266.75 495 a2.25 2.25 0 1 0 4.5 0 a2.25 2.25 0 1 0 -4.5 0zM546.75 477 a2.25 2.25 0 1 0 4.5 0 a2.25 2.25 0 1 0 -4.5 0zM1032.75 477 a2.25 2.25 0 1 0 4.5 0 a2.25 2.25 0 1 0 -4.5 0zM1230.75 459 a2.25 2.25 0 1 0 4.5 0 a2.25 2.25 0 1 0 -4.5 0zM744.75 459 a2.25 2.25 0 1 0 4.5 0 a2.25 2.25 0 1 0 -4.5 0zM654.75 477 a2.25 2.25 0 1 0 4.5 0 a2.25 2.25 0 1 0 -4.5 0zM420.75 495 a2.25 2.25 0 1 0 4.5 0 a2.25 2.25 0 1 0 -4.5 0zM1446.75 549 a2.25 2.25 0 1 0 4.5 0 a2.25 2.25 0 1 0 -4.5 0zM1032.75 441 a2.25 2.25 0 1 0 4.5 0 a2.25 2.25 0 1 0 -4.5 0zM276.75 513 a2.25 2.25 0 1 0 4.5 0 a2.25 2.25 0 1 0 -4.5 0zM1266.75 531 a2.25 2.25 0 1 0 4.5 0 a2.25 2.25 0 1 0 -4.5 0zM1302.75 549 a2.25 2.25 0 1 0 4.5 0 a2.25 2.25 0 1 0 -4.5 0zM942.75 423 a2.25 2.25 0 1 0 4.5 0 a2.25 2.25 0 1 0 -4.5 0zM780.75 513 a2.25 2.25 0 1 0 4.5 0 a2.25 2.25 0 1 0 -4.5 0zM384.75 495 a2.25 2.25 0 1 0 4.5 0 a2.25 2.25 0 1 0 -4.5 0zM150.75 531 a2.25 2.25 0 1 0 4.5 0 a2.25 2.25 0 1 0 -4.5 0zM852.75 477 a2.25 2.25 0 1 0 4.5 0 a2.25 2.25 0 1 0 -4.5 0zM1230.75 549 a2.25 2.25 0 1 0 4.5 0 a2.25 2.25 0 1 0 -4.5 0zM816.75 513 a2.25 2.25 0 1 0 4.5 0 a2.25 2.25 0 1 0 -4.5 0z" fill="black"></path><path d="M1464.75 567 a2.25 2.25 0 1 0 4.5 0 a2.25 2.25 0 1 0 -4.5 0zM204.75 603 a2.25 2.25 0 1 0 4.5 0 a2.25 2.25 0 1 0 -4.5 0zM1176.75 639 a2.25 2.25 0 1 0 4.5 0 a2.25 2.25 0 1 0 -4.5 0zM1212.75 549 a2.25 2.25 0 1 0 4.5 0 a2.25 2.25 0 1 0 -4.5 0zM1356.75 603 a2.25 2.25 0 1 0 4.5 0 a2.25 2.25 0 1 0 -4.5 0zM474.75 603 a2.25 2.25 0 1 0 4.5 0 a2.25 2.25 0 1 0 -4.5 0zM1464.75 585 a2.25 2.25 0 1 0 4.5 0 a2.25 2.25 0 1 0 -4.5 0zM1068.75 693 a2.25 2.25 0 1 0 4.5 0 a2.25 2.25 0 1 0 -4.5 0zM1122.75 549 a2.25 2.25 0 1 0 4.5 0 a2.25 2.25 0 1 0 -4.5 0zM348.75 603 a2.25 2.25 0 1 0 4.5 0 a2.25 2.25 0 1 0 -4.5 0zM186.75 603 a2.25 2.25 0 1 0 4.5 0 a2.25 2.25 0 1 0 -4.5 0zM1464.75 603 a2.25 2.25 0 1 0 4.5 0 a2.25 2.25 0 1 0 -4.5 0zM546.75 621 a2.25 2.25 0 1 0 4.5 0 a2.25 2.25 0 1 0 -4.5 0zM906.75 657 a2.25 2.25 0 1 0 4.5 0 a2.25 2.25 0 1 0 -4.5 0zM1428.75 603 a2.25 2.25 0 1 0 4.5 0 a2.25 2.25 0 1 0 -4.5 0zM834.75 693 a2.25 2.25 0 1 0 4.5 0 a2.25 2.25 0 1 0 -4.5 0zM690.75 621 a2.25 2.25 0 1 0 4.5 0 a2.25 2.25 0 1 0 -4.5 0zM1032.75 603 a2.25 2.25 0 1 0 4.5 0 a2.25 2.25 0 1 0 -4.5 0zM1806.75 603 a2.25 2.25 0 1 0 4.5 0 a2.25 2.25 0 1 0 -4.5 0zM888.75 603 a2.25 2.25 0 1 0 4.5 0 a2.25 2.25 0 1 0 -4.5 0zM636.75 621 a2.25 2.25 0 1 0 4.5 0 a2.25 2.25 0 1 0 -4.5 0z" fill="black"></path><path d="M1266.75 405 a2.25 2.25 0 1 0 4.5 0 a2.25 2.25 0 1 0 -4.5 0zM762.75 405 a2.25 2.25 0 1 0 4.5 0 a2.25 2.25 0 1 0 -4.5 0zM1122.75 405 a2.25 2.25 0 1 0 4.5 0 a2.25 2.25 0 1 0 -4.5 0zM636.75 441 a2.25 2.25 0 1 0 4.5 0 a2.25 2.25 0 1 0 -4.5 0zM1032.75 405 a2.25 2.25 0 1 0 4.5 0 a2.25 2.25 0 1 0 -4.5 0zM1014.75 405 a2.25 2.25 0 1 0 4.5 0 a2.25 2.25 0 1 0 -4.5 0zM618.75 441 a2.25 2.25 0 1 0 4.5 0 a2.25 2.25 0 1 0 -4.5 0zM924.75 423 a2.25 2.25 0 1 0 4.5 0 a2.25 2.25 0 1 0 -4.5 0zM672.75 405 a2.25 2.25 0 1 0 4.5 0 a2.25 2.25 0 1 0 -4.5 0zM204.75 495 a2.25 2.25 0 1 0 4.5 0 a2.25 2.25 0 1 0 -4.5 0zM1626.75 405 a2.25 2.25 0 1 0 4.5 0 a2.25 2.25 0 1 0 -4.5 0zM1230.75 423 a2.25 2.25 0 1 0 4.5 0 a2.25 2.25 0 1 0 -4.5 0zM996.75 441 a2.25 2.25 0 1 0 4.5 0 a2.25 2.25 0 1 0 -4.5 0zM1230.75 441 a2.25 2.25 0 1 0 4.5 0 a2.25 2.25 0 1 0 -4.5 0zM1284.75 423 a2.25 2.25 0 1 0 4.5 0 a2.25 2.25 0 1 0 -4.5 0zM1104.75 441 a2.25 2.25 0 1 0 4.5 0 a2.25 2.25 0 1 0 -4.5 0zM978.75 405 a2.25 2.25 0 1 0 4.5 0 a2.25 2.25 0 1 0 -4.5 0z" fill="black"></path><path d="M1122.75 729 a2.25 2.25 0 1 0 4.5 0 a2.25 2.25 0 1 0 -4.5 0zM1032.75 729 a2.25 2.25 0 1 0 4.5 0 a2.25 2.25 0 1 0 -4.5 0zM960.75 693 a2.25 2.25 0 1 0 4.5 0 a2.25 2.25 0 1 0 -4.5 0zM906.75 729 a2.25 2.25 0 1 0 4.5 0 a2.25 2.25 0 1 0 -4.5 0zM852.75 747 a2.25 2.25 0 1 0 4.5 0 a2.25 2.25 0 1 0 -4.5 0zM798.75 693 a2.25 2.25 0 1 0 4.5 0 a2.25 2.25 0 1 0 -4.5 0zM564.75 693 a2.25 2.25 0 1 0 4.5 0 a2.25 2.25 0 1 0 -4.5 0zM618.75 711 a2.25 2.25 0 1 0 4.5 0 a2.25 2.25 0 1 0 -4.5 0zM726.75 657 a2.25 2.25 0 1 0 4.5 0 a2.25 2.25 0 1 0 -4.5 0zM510.75 657 a2.25 2.25 0 1 0 4.5 0 a2.25 2.25 0 1 0 -4.5 0zM654.75 639 a2.25 2.25 0 1 0 4.5 0 a2.25 2.25 0 1 0 -4.5 0zM276.75 603 a2.25 2.25 0 1 0 4.5 0 a2.25 2.25 0 1 0 -4.5 0zM978.75 729 a2.25 2.25 0 1 0 4.5 0 a2.25 2.25 0 1 0 -4.5 0zM636.75 693 a2.25 2.25 0 1 0 4.5 0 a2.25 2.25 0 1 0 -4.5 0zM420.75 639 a2.25 2.25 0 1 0 4.5 0 a2.25 2.25 0 1 0 -4.5 0zM456.75 675 a2.25 2.25 0 1 0 4.5 0 a2.25 2.25 0 1 0 -4.5 0zM618.75 639 a2.25 2.25 0 1 0 4.5 0 a2.25 2.25 0 1 0 -4.5 0z" fill="black"></path><path d="M168.75 477 a2.25 2.25 0 1 0 4.5 0 a2.25 2.25 0 1 0 -4.5 0z" fill="black"></path><path d="M474.75 729 a2.25 2.25 0 1 0 4.5 0 a2.25 2.25 0 1 0 -4.5 0zM96.75 603 a2.25 2.25 0 1 0 4.5 0 a2.25 2.25 0 1 0 -4.5 0zM366.75 675 a2.25 2.25 0 1 0 4.5 0 a2.25 2.25 0 1 0 -4.5 0zM474.75 711 a2.25 2.25 0 1 0 4.5 0 a2.25 2.25 0 1 0 -4.5 0zM42.75 621 a2.25 2.25 0 1 0 4.5 0 a2.25 2.25 0 1 0 -4.5 0zM402.75 693 a2.25 2.25 0 1 0 4.5 0 a2.25 2.25 0 1 0 -4.5 0z" fill="black"></path><path d="M1392.75 333 a2.25 2.25 0 1 0 4.5 0 a2.25 2.25 0 1 0 -4.5 0zM294.75 423 a2.25 2.25 0 1 0 4.5 0 a2.25 2.25 0 1 0 -4.5 0zM1212.75 333 a2.25 2.25 0 1 0 4.5 0 a2.25 2.25 0 1 0 -4.5 0zM906.75 369 a2.25 2.25 0 1 0 4.5 0 a2.25 2.25 0 1 0 -4.5 0zM186.75 441 a2.25 2.25 0 1 0 4.5 0 a2.25 2.25 0 1 0 -4.5 0zM582.75 405 a2.25 2.25 0 1 0 4.5 0 a2.25 2.25 0 1 0 -4.5 0zM294.75 441 a2.25 2.25 0 1 0 4.5 0 a2.25 2.25 0 1 0 -4.5 0zM1086.75 369 a2.25 2.25 0 1 0 4.5 0 a2.25 2.25 0 1 0 -4.5 0zM870.75 369 a2.25 2.25 0 1 0 4.5 0 a2.25 2.25 0 1 0 -4.5 0zM1770.75 315 a2.25 2.25 0 1 0 4.5 0 a2.25 2.25 0 1 0 -4.5 0zM654.75 405 a2.25 2.25 0 1 0 4.5 0 a2.25 2.25 0 1 0 -4.5 0zM1104.75 333 a2.25 2.25 0 1 0 4.5 0 a2.25 2.25 0 1 0 -4.5 0zM258.75 423 a2.25 2.25 0 1 0 4.5 0 a2.25 2.25 0 1 0 -4.5 0zM1734.75 279 a2.25 2.25 0 1 0 4.5 0 a2.25 2.25 0 1 0 -4.5 0zM798.75 369 a2.25 2.25 0 1 0 4.5 0 a2.25 2.25 0 1 0 -4.5 0zM1068.75 369 a2.25 2.25 0 1 0 4.5 0 a2.25 2.25 0 1 0 -4.5 0zM330.75 423 a2.25 2.25 0 1 0 4.5 0 a2.25 2.25 0 1 0 -4.5 0zM1050.75 369 a2.25 2.25 0 1 0 4.5 0 a2.25 2.25 0 1 0 -4.5 0zM726.75 369 a2.25 2.25 0 1 0 4.5 0 a2.25 2.25 0 1 0 -4.5 0zM1032.75 369 a2.25 2.25 0 1 0 4.5 0 a2.25 2.25 0 1 0 -4.5 0z" fill="black"></path><path d="M1194.75 765 a2.25 2.25 0 1 0 4.5 0 a2.25 2.25 0 1 0 -4.5 0zM618.75 729 a2.25 2.25 0 1 0 4.5 0 a2.25 2.25 0 1 0 -4.5 0zM798.75 765 a2.25 2.25 0 1 0 4.5 0 a2.25 2.25 0 1 0 -4.5 0zM672.75 747 a2.25 2.25 0 1 0 4.5 0 a2.25 2.25 0 1 0 -4.5 0zM1338.75 783 a2.25 2.25 0 1 0 4.5 0 a2.25 2.25 0 1 0 -4.5 0zM1356.75 729 a2.25 2.25 0 1 0 4.5 0 a2.25 2.25 0 1 0 -4.5 0zM1086.75 729 a2.25 2.25 0 1 0 4.5 0 a2.25 2.25 0 1 0 -4.5 0zM24.75 621 a2.25 2.25 0 1 0 4.5 0 a2.25 2.25 0 1 0 -4.5 0zM276.75 675 a2.25 2.25 0 1 0 4.5 0 a2.25 2.25 0 1 0 -4.5 0zM1194.75 711 a2.25 2.25 0 1 0 4.5 0 a2.25 2.25 0 1 0 -4.5 0zM546.75 747 a2.25 2.25 0 1 0 4.5 0 a2.25 2.25 0 1 0 -4.5 0zM240.75 693 a2.25 2.25 0 1 0 4.5 0 a2.25 2.25 0 1 0 -4.5 0zM1068.75 729 a2.25 2.25 0 1 0 4.5 0 a2.25 2.25 0 1 0 -4.5 0zM834.75 765 a2.25 2.25 0 1 0 4.5 0 a2.25 2.25 0 1 0 -4.5 0zM1410.75 729 a2.25 2.25 0 1 0 4.5 0 a2.25 2.25 0 1 0 -4.5 0zM1212.75 801 a2.25 2.25 0 1 0 4.5 0 a2.25 2.25 0 1 0 -4.5 0z" fill="black"></path><path d="M1230.75 315 a2.25 2.25 0 1 0 4.5 0 a2.25 2.25 0 1 0 -4.5 0zM690.75 369 a2.25 2.25 0 1 0 4.5 0 a2.25 2.25 0 1 0 -4.5 0zM240.75 423 a2.25 2.25 0 1 0 4.5 0 a2.25 2.25 0 1 0 -4.5 0zM1104.75 297 a2.25 2.25 0 1 0 4.5 0 a2.25 2.25 0 1 0 -4.5 0zM420.75 387 a2.25 2.25 0 1 0 4.5 0 a2.25 2.25 0 1 0 -4.5 0zM474.75 387 a2.25 2.25 0 1 0 4.5 0 a2.25 2.25 0 1 0 -4.5 0zM960.75 333 a2.25 2.25 0 1 0 4.5 0 a2.25 2.25 0 1 0 -4.5 0zM168.75 441 a2.25 2.25 0 1 0 4.5 0 a2.25 2.25 0 1 0 -4.5 0zM366.75 405 a2.25 2.25 0 1 0 4.5 0 a2.25 2.25 0 1 0 -4.5 0zM1050.75 297 a2.25 2.25 0 1 0 4.5 0 a2.25 2.25 0 1 0 -4.5 0zM1248.75 297 a2.25 2.25 0 1 0 4.5 0 a2.25 2.25 0 1 0 -4.5 0zM1320.75 279 a2.25 2.25 0 1 0 4.5 0 a2.25 2.25 0 1 0 -4.5 0zM1140.75 297 a2.25 2.25 0 1 0 4.5 0 a2.25 2.25 0 1 0 -4.5 0zM222.75 441 a2.25 2.25 0 1 0 4.5 0 a2.25 2.25 0 1 0 -4.5 0zM978.75 351 a2.25 2.25 0 1 0 4.5 0 a2.25 2.25 0 1 0 -4.5 0zM528.75 405 a2.25 2.25 0 1 0 4.5 0 a2.25 2.25 0 1 0 -4.5 0zM492.75 405 a2.25 2.25 0 1 0 4.5 0 a2.25 2.25 0 1 0 -4.5 0zM996.75 333 a2.25 2.25 0 1 0 4.5 0 a2.25 2.25 0 1 0 -4.5 0z" fill="black"></path><path d="M384.75 729 a2.25 2.25 0 1 0 4.5 0 a2.25 2.25 0 1 0 -4.5 0zM204.75 675 a2.25 2.25 0 1 0 4.5 0 a2.25 2.25 0 1 0 -4.5 0zM258.75 711 a2.25 2.25 0 1 0 4.5 0 a2.25 2.25 0 1 0 -4.5 0zM222.75 693 a2.25 2.25 0 1 0 4.5 0 a2.25 2.25 0 1 0 -4.5 0zM294.75 711 a2.25 2.25 0 1 0 4.5 0 a2.25 2.25 0 1 0 -4.5 0z" fill="black"></path><path d="M222.75 405 a2.25 2.25 0 1 0 4.5 0 a2.25 2.25 0 1 0 -4.5 0zM60.75 441 a2.25 2.25 0 1 0 4.5 0 a2.25 2.25 0 1 0 -4.5 0z" fill="black"></path><path d="M1608.75 783 a2.25 2.25 0 1 0 4.5 0 a2.25 2.25 0 1 0 -4.5 0zM1032.75 819 a2.25 2.25 0 1 0 4.5 0 a2.25 2.25 0 1 0 -4.5 0zM996.75 801 a2.25 2.25 0 1 0 4.5 0 a2.25 2.25 0 1 0 -4.5 0zM816.75 819 a2.25 2.25 0 1 0 4.5 0 a2.25 2.25 0 1 0 -4.5 0zM312.75 747 a2.25 2.25 0 1 0 4.5 0 a2.25 2.25 0 1 0 -4.5 0zM60.75 693 a2.25 2.25 0 1 0 4.5 0 a2.25 2.25 0 1 0 -4.5 0zM132.75 693 a2.25 2.25 0 1 0 4.5 0 a2.25 2.25 0 1 0 -4.5 0zM888.75 801 a2.25 2.25 0 1 0 4.5 0 a2.25 2.25 0 1 0 -4.5 0zM564.75 801 a2.25 2.25 0 1 0 4.5 0 a2.25 2.25 0 1 0 -4.5 0zM546.75 801 a2.25 2.25 0 1 0 4.5 0 a2.25 2.25 0 1 0 -4.5 0zM1716.75 765 a2.25 2.25 0 1 0 4.5 0 a2.25 2.25 0 1 0 -4.5 0zM1302.75 837 a2.25 2.25 0 1 0 4.5 0 a2.25 2.25 0 1 0 -4.5 0zM114.75 693 a2.25 2.25 0 1 0 4.5 0 a2.25 2.25 0 1 0 -4.5 0zM1338.75 819 a2.25 2.25 0 1 0 4.5 0 a2.25 2.25 0 1 0 -4.5 0zM1176.75 819 a2.25 2.25 0 1 0 4.5 0 a2.25 2.25 0 1 0 -4.5 0zM960.75 819 a2.25 2.25 0 1 0 4.5 0 a2.25 2.25 0 1 0 -4.5 0zM1680.75 747 a2.25 2.25 0 1 0 4.5 0 a2.25 2.25 0 1 0 -4.5 0zM1878.75 783 a2.25 2.25 0 1 0 4.5 0 a2.25 2.25 0 1 0 -4.5 0zM1248.75 837 a2.25 2.25 0 1 0 4.5 0 a2.25 2.25 0 1 0 -4.5 0zM1572.75 837 a2.25 2.25 0 1 0 4.5 0 a2.25 2.25 0 1 0 -4.5 0zM1032.75 801 a2.25 2.25 0 1 0 4.5 0 a2.25 2.25 0 1 0 -4.5 0zM1086.75 819 a2.25 2.25 0 1 0 4.5 0 a2.25 2.25 0 1 0 -4.5 0zM1374.75 855 a2.25 2.25 0 1 0 4.5 0 a2.25 2.25 0 1 0 -4.5 0z" fill="black"></path><path d="M1428.75 261 a2.25 2.25 0 1 0 4.5 0 a2.25 2.25 0 1 0 -4.5 0zM546.75 333 a2.25 2.25 0 1 0 4.5 0 a2.25 2.25 0 1 0 -4.5 0zM96.75 387 a2.25 2.25 0 1 0 4.5 0 a2.25 2.25 0 1 0 -4.5 0zM636.75 351 a2.25 2.25 0 1 0 4.5 0 a2.25 2.25 0 1 0 -4.5 0zM1446.75 279 a2.25 2.25 0 1 0 4.5 0 a2.25 2.25 0 1 0 -4.5 0zM528.75 351 a2.25 2.25 0 1 0 4.5 0 a2.25 2.25 0 1 0 -4.5 0zM1410.75 279 a2.25 2.25 0 1 0 4.5 0 a2.25 2.25 0 1 0 -4.5 0zM1590.75 243 a2.25 2.25 0 1 0 4.5 0 a2.25 2.25 0 1 0 -4.5 0zM1032.75 297 a2.25 2.25 0 1 0 4.5 0 a2.25 2.25 0 1 0 -4.5 0zM1374.75 243 a2.25 2.25 0 1 0 4.5 0 a2.25 2.25 0 1 0 -4.5 0zM510.75 351 a2.25 2.25 0 1 0 4.5 0 a2.25 2.25 0 1 0 -4.5 0zM456.75 315 a2.25 2.25 0 1 0 4.5 0 a2.25 2.25 0 1 0 -4.5 0zM312.75 387 a2.25 2.25 0 1 0 4.5 0 a2.25 2.25 0 1 0 -4.5 0zM240.75 369 a2.25 2.25 0 1 0 4.5 0 a2.25 2.25 0 1 0 -4.5 0zM906.75 333 a2.25 2.25 0 1 0 4.5 0 a2.25 2.25 0 1 0 -4.5 0zM168.75 369 a2.25 2.25 0 1 0 4.5 0 a2.25 2.25 0 1 0 -4.5 0zM978.75 315 a2.25 2.25 0 1 0 4.5 0 a2.25 2.25 0 1 0 -4.5 0zM492.75 351 a2.25 2.25 0 1 0 4.5 0 a2.25 2.25 0 1 0 -4.5 0zM1158.75 297 a2.25 2.25 0 1 0 4.5 0 a2.25 2.25 0 1 0 -4.5 0zM600.75 351 a2.25 2.25 0 1 0 4.5 0 a2.25 2.25 0 1 0 -4.5 0zM474.75 351 a2.25 2.25 0 1 0 4.5 0 a2.25 2.25 0 1 0 -4.5 0z" fill="black"></path><path d="M456.75 765 a2.25 2.25 0 1 0 4.5 0 a2.25 2.25 0 1 0 -4.5 0zM168.75 729 a2.25 2.25 0 1 0 4.5 0 a2.25 2.25 0 1 0 -4.5 0zM240.75 765 a2.25 2.25 0 1 0 4.5 0 a2.25 2.25 0 1 0 -4.5 0zM150.75 729 a2.25 2.25 0 1 0 4.5 0 a2.25 2.25 0 1 0 -4.5 0zM186.75 711 a2.25 2.25 0 1 0 4.5 0 a2.25 2.25 0 1 0 -4.5 0zM294.75 747 a2.25 2.25 0 1 0 4.5 0 a2.25 2.25 0 1 0 -4.5 0z" fill="black"></path><path d="M402.75 315 a2.25 2.25 0 1 0 4.5 0 a2.25 2.25 0 1 0 -4.5 0zM42.75 405 a2.25 2.25 0 1 0 4.5 0 a2.25 2.25 0 1 0 -4.5 0zM222.75 369 a2.25 2.25 0 1 0 4.5 0 a2.25 2.25 0 1 0 -4.5 0zM96.75 369 a2.25 2.25 0 1 0 4.5 0 a2.25 2.25 0 1 0 -4.5 0zM420.75 333 a2.25 2.25 0 1 0 4.5 0 a2.25 2.25 0 1 0 -4.5 0zM276.75 351 a2.25 2.25 0 1 0 4.5 0 a2.25 2.25 0 1 0 -4.5 0zM348.75 351 a2.25 2.25 0 1 0 4.5 0 a2.25 2.25 0 1 0 -4.5 0z" fill="black"></path><path d="M204.75 747 a2.25 2.25 0 1 0 4.5 0 a2.25 2.25 0 1 0 -4.5 0zM132.75 729 a2.25 2.25 0 1 0 4.5 0 a2.25 2.25 0 1 0 -4.5 0zM114.75 747 a2.25 2.25 0 1 0 4.5 0 a2.25 2.25 0 1 0 -4.5 0zM222.75 765 a2.25 2.25 0 1 0 4.5 0 a2.25 2.25 0 1 0 -4.5 0z" fill="black"></path><path d="M1842.75 279 a2.25 2.25 0 1 0 4.5 0 a2.25 2.25 0 1 0 -4.5 0zM1500.75 243 a2.25 2.25 0 1 0 4.5 0 a2.25 2.25 0 1 0 -4.5 0zM1014.75 261 a2.25 2.25 0 1 0 4.5 0 a2.25 2.25 0 1 0 -4.5 0zM1878.75 261 a2.25 2.25 0 1 0 4.5 0 a2.25 2.25 0 1 0 -4.5 0zM960.75 261 a2.25 2.25 0 1 0 4.5 0 a2.25 2.25 0 1 0 -4.5 0zM960.75 243 a2.25 2.25 0 1 0 4.5 0 a2.25 2.25 0 1 0 -4.5 0zM1878.75 243 a2.25 2.25 0 1 0 4.5 0 a2.25 2.25 0 1 0 -4.5 0zM726.75 297 a2.25 2.25 0 1 0 4.5 0 a2.25 2.25 0 1 0 -4.5 0zM312.75 315 a2.25 2.25 0 1 0 4.5 0 a2.25 2.25 0 1 0 -4.5 0zM780.75 279 a2.25 2.25 0 1 0 4.5 0 a2.25 2.25 0 1 0 -4.5 0zM942.75 243 a2.25 2.25 0 1 0 4.5 0 a2.25 2.25 0 1 0 -4.5 0zM654.75 315 a2.25 2.25 0 1 0 4.5 0 a2.25 2.25 0 1 0 -4.5 0zM1806.75 297 a2.25 2.25 0 1 0 4.5 0 a2.25 2.25 0 1 0 -4.5 0zM600.75 261 a2.25 2.25 0 1 0 4.5 0 a2.25 2.25 0 1 0 -4.5 0zM240.75 315 a2.25 2.25 0 1 0 4.5 0 a2.25 2.25 0 1 0 -4.5 0zM1878.75 297 a2.25 2.25 0 1 0 4.5 0 a2.25 2.25 0 1 0 -4.5 0zM1536.75 243 a2.25 2.25 0 1 0 4.5 0 a2.25 2.25 0 1 0 -4.5 0zM204.75 315 a2.25 2.25 0 1 0 4.5 0 a2.25 2.25 0 1 0 -4.5 0zM1734.75 261 a2.25 2.25 0 1 0 4.5 0 a2.25 2.25 0 1 0 -4.5 0zM582.75 243 a2.25 2.25 0 1 0 4.5 0 a2.25 2.25 0 1 0 -4.5 0zM132.75 315 a2.25 2.25 0 1 0 4.5 0 a2.25 2.25 0 1 0 -4.5 0zM528.75 315 a2.25 2.25 0 1 0 4.5 0 a2.25 2.25 0 1 0 -4.5 0zM672.75 333 a2.25 2.25 0 1 0 4.5 0 a2.25 2.25 0 1 0 -4.5 0zM438.75 315 a2.25 2.25 0 1 0 4.5 0 a2.25 2.25 0 1 0 -4.5 0zM546.75 243 a2.25 2.25 0 1 0 4.5 0 a2.25 2.25 0 1 0 -4.5 0zM1716.75 279 a2.25 2.25 0 1 0 4.5 0 a2.25 2.25 0 1 0 -4.5 0zM1698.75 279 a2.25 2.25 0 1 0 4.5 0 a2.25 2.25 0 1 0 -4.5 0z" fill="black"></path><path d="M1140.75 855 a2.25 2.25 0 1 0 4.5 0 a2.25 2.25 0 1 0 -4.5 0zM780.75 819 a2.25 2.25 0 1 0 4.5 0 a2.25 2.25 0 1 0 -4.5 0zM726.75 837 a2.25 2.25 0 1 0 4.5 0 a2.25 2.25 0 1 0 -4.5 0zM78.75 747 a2.25 2.25 0 1 0 4.5 0 a2.25 2.25 0 1 0 -4.5 0zM528.75 801 a2.25 2.25 0 1 0 4.5 0 a2.25 2.25 0 1 0 -4.5 0zM366.75 801 a2.25 2.25 0 1 0 4.5 0 a2.25 2.25 0 1 0 -4.5 0zM654.75 837 a2.25 2.25 0 1 0 4.5 0 a2.25 2.25 0 1 0 -4.5 0zM618.75 837 a2.25 2.25 0 1 0 4.5 0 a2.25 2.25 0 1 0 -4.5 0zM600.75 837 a2.25 2.25 0 1 0 4.5 0 a2.25 2.25 0 1 0 -4.5 0zM456.75 783 a2.25 2.25 0 1 0 4.5 0 a2.25 2.25 0 1 0 -4.5 0z" fill="black"></path><path d="M330.75 315 a2.25 2.25 0 1 0 4.5 0 a2.25 2.25 0 1 0 -4.5 0zM294.75 315 a2.25 2.25 0 1 0 4.5 0 a2.25 2.25 0 1 0 -4.5 0zM114.75 315 a2.25 2.25 0 1 0 4.5 0 a2.25 2.25 0 1 0 -4.5 0zM204.75 279 a2.25 2.25 0 1 0 4.5 0 a2.25 2.25 0 1 0 -4.5 0zM276.75 297 a2.25 2.25 0 1 0 4.5 0 a2.25 2.25 0 1 0 -4.5 0zM348.75 279 a2.25 2.25 0 1 0 4.5 0 a2.25 2.25 0 1 0 -4.5 0z" fill="black"></path><path d="M1230.75 873 a2.25 2.25 0 1 0 4.5 0 a2.25 2.25 0 1 0 -4.5 0zM330.75 801 a2.25 2.25 0 1 0 4.5 0 a2.25 2.25 0 1 0 -4.5 0zM582.75 837 a2.25 2.25 0 1 0 4.5 0 a2.25 2.25 0 1 0 -4.5 0zM1248.75 891 a2.25 2.25 0 1 0 4.5 0 a2.25 2.25 0 1 0 -4.5 0zM1230.75 855 a2.25 2.25 0 1 0 4.5 0 a2.25 2.25 0 1 0 -4.5 0zM438.75 819 a2.25 2.25 0 1 0 4.5 0 a2.25 2.25 0 1 0 -4.5 0zM1464.75 909 a2.25 2.25 0 1 0 4.5 0 a2.25 2.25 0 1 0 -4.5 0zM1464.75 927 a2.25 2.25 0 1 0 4.5 0 a2.25 2.25 0 1 0 -4.5 0zM1194.75 855 a2.25 2.25 0 1 0 4.5 0 a2.25 2.25 0 1 0 -4.5 0zM384.75 819 a2.25 2.25 0 1 0 4.5 0 a2.25 2.25 0 1 0 -4.5 0zM690.75 837 a2.25 2.25 0 1 0 4.5 0 a2.25 2.25 0 1 0 -4.5 0z" fill="black"></path><path d="M132.75 279 a2.25 2.25 0 1 0 4.5 0 a2.25 2.25 0 1 0 -4.5 0z" fill="black"></path><path d="M1104.75 891 a2.25 2.25 0 1 0 4.5 0 a2.25 2.25 0 1 0 -4.5 0zM276.75 837 a2.25 2.25 0 1 0 4.5 0 a2.25 2.25 0 1 0 -4.5 0zM312.75 837 a2.25 2.25 0 1 0 4.5 0 a2.25 2.25 0 1 0 -4.5 0zM1284.75 945 a2.25 2.25 0 1 0 4.5 0 a2.25 2.25 0 1 0 -4.5 0zM1230.75 963 a2.25 2.25 0 1 0 4.5 0 a2.25 2.25 0 1 0 -4.5 0zM456.75 855 a2.25 2.25 0 1 0 4.5 0 a2.25 2.25 0 1 0 -4.5 0zM1050.75 927 a2.25 2.25 0 1 0 4.5 0 a2.25 2.25 0 1 0 -4.5 0zM996.75 927 a2.25 2.25 0 1 0 4.5 0 a2.25 2.25 0 1 0 -4.5 0zM438.75 855 a2.25 2.25 0 1 0 4.5 0 a2.25 2.25 0 1 0 -4.5 0z" fill="black"></path><path d="M1824.75 225 a2.25 2.25 0 1 0 4.5 0 a2.25 2.25 0 1 0 -4.5 0zM1878.75 207 a2.25 2.25 0 1 0 4.5 0 a2.25 2.25 0 1 0 -4.5 0zM456.75 243 a2.25 2.25 0 1 0 4.5 0 a2.25 2.25 0 1 0 -4.5 0zM1068.75 225 a2.25 2.25 0 1 0 4.5 0 a2.25 2.25 0 1 0 -4.5 0zM402.75 243 a2.25 2.25 0 1 0 4.5 0 a2.25 2.25 0 1 0 -4.5 0zM888.75 243 a2.25 2.25 0 1 0 4.5 0 a2.25 2.25 0 1 0 -4.5 0zM582.75 207 a2.25 2.25 0 1 0 4.5 0 a2.25 2.25 0 1 0 -4.5 0zM1734.75 225 a2.25 2.25 0 1 0 4.5 0 a2.25 2.25 0 1 0 -4.5 0zM1698.75 189 a2.25 2.25 0 1 0 4.5 0 a2.25 2.25 0 1 0 -4.5 0zM1176.75 207 a2.25 2.25 0 1 0 4.5 0 a2.25 2.25 0 1 0 -4.5 0zM780.75 207 a2.25 2.25 0 1 0 4.5 0 a2.25 2.25 0 1 0 -4.5 0zM438.75 243 a2.25 2.25 0 1 0 4.5 0 a2.25 2.25 0 1 0 -4.5 0zM1122.75 207 a2.25 2.25 0 1 0 4.5 0 a2.25 2.25 0 1 0 -4.5 0zM726.75 243 a2.25 2.25 0 1 0 4.5 0 a2.25 2.25 0 1 0 -4.5 0zM726.75 207 a2.25 2.25 0 1 0 4.5 0 a2.25 2.25 0 1 0 -4.5 0zM870.75 243 a2.25 2.25 0 1 0 4.5 0 a2.25 2.25 0 1 0 -4.5 0zM852.75 243 a2.25 2.25 0 1 0 4.5 0 a2.25 2.25 0 1 0 -4.5 0zM654.75 207 a2.25 2.25 0 1 0 4.5 0 a2.25 2.25 0 1 0 -4.5 0zM942.75 207 a2.25 2.25 0 1 0 4.5 0 a2.25 2.25 0 1 0 -4.5 0zM1464.75 189 a2.25 2.25 0 1 0 4.5 0 a2.25 2.25 0 1 0 -4.5 0zM528.75 225 a2.25 2.25 0 1 0 4.5 0 a2.25 2.25 0 1 0 -4.5 0zM168.75 279 a2.25 2.25 0 1 0 4.5 0 a2.25 2.25 0 1 0 -4.5 0zM240.75 279 a2.25 2.25 0 1 0 4.5 0 a2.25 2.25 0 1 0 -4.5 0zM1878.75 189 a2.25 2.25 0 1 0 4.5 0 a2.25 2.25 0 1 0 -4.5 0zM294.75 279 a2.25 2.25 0 1 0 4.5 0 a2.25 2.25 0 1 0 -4.5 0zM1158.75 207 a2.25 2.25 0 1 0 4.5 0 a2.25 2.25 0 1 0 -4.5 0z" fill="black"></path><path d="M852.75 891 a2.25 2.25 0 1 0 4.5 0 a2.25 2.25 0 1 0 -4.5 0zM510.75 909 a2.25 2.25 0 1 0 4.5 0 a2.25 2.25 0 1 0 -4.5 0zM348.75 873 a2.25 2.25 0 1 0 4.5 0 a2.25 2.25 0 1 0 -4.5 0zM780.75 909 a2.25 2.25 0 1 0 4.5 0 a2.25 2.25 0 1 0 -4.5 0zM474.75 891 a2.25 2.25 0 1 0 4.5 0 a2.25 2.25 0 1 0 -4.5 0zM312.75 873 a2.25 2.25 0 1 0 4.5 0 a2.25 2.25 0 1 0 -4.5 0zM240.75 837 a2.25 2.25 0 1 0 4.5 0 a2.25 2.25 0 1 0 -4.5 0zM222.75 837 a2.25 2.25 0 1 0 4.5 0 a2.25 2.25 0 1 0 -4.5 0zM402.75 873 a2.25 2.25 0 1 0 4.5 0 a2.25 2.25 0 1 0 -4.5 0zM834.75 909 a2.25 2.25 0 1 0 4.5 0 a2.25 2.25 0 1 0 -4.5 0zM402.75 891 a2.25 2.25 0 1 0 4.5 0 a2.25 2.25 0 1 0 -4.5 0zM492.75 909 a2.25 2.25 0 1 0 4.5 0 a2.25 2.25 0 1 0 -4.5 0zM978.75 945 a2.25 2.25 0 1 0 4.5 0 a2.25 2.25 0 1 0 -4.5 0z" fill="black"></path><path d="M42.75 297 a2.25 2.25 0 1 0 4.5 0 a2.25 2.25 0 1 0 -4.5 0z" fill="black"></path><path d="M420.75 891 a2.25 2.25 0 1 0 4.5 0 a2.25 2.25 0 1 0 -4.5 0zM204.75 855 a2.25 2.25 0 1 0 4.5 0 a2.25 2.25 0 1 0 -4.5 0zM384.75 891 a2.25 2.25 0 1 0 4.5 0 a2.25 2.25 0 1 0 -4.5 0zM366.75 909 a2.25 2.25 0 1 0 4.5 0 a2.25 2.25 0 1 0 -4.5 0zM294.75 873 a2.25 2.25 0 1 0 4.5 0 a2.25 2.25 0 1 0 -4.5 0zM420.75 909 a2.25 2.25 0 1 0 4.5 0 a2.25 2.25 0 1 0 -4.5 0z" fill="black"></path><path d="M1626.75 171 a2.25 2.25 0 1 0 4.5 0 a2.25 2.25 0 1 0 -4.5 0zM780.75 153 a2.25 2.25 0 1 0 4.5 0 a2.25 2.25 0 1 0 -4.5 0zM1518.75 153 a2.25 2.25 0 1 0 4.5 0 a2.25 2.25 0 1 0 -4.5 0zM852.75 171 a2.25 2.25 0 1 0 4.5 0 a2.25 2.25 0 1 0 -4.5 0zM1068.75 153 a2.25 2.25 0 1 0 4.5 0 a2.25 2.25 0 1 0 -4.5 0zM1554.75 135 a2.25 2.25 0 1 0 4.5 0 a2.25 2.25 0 1 0 -4.5 0zM564.75 135 a2.25 2.25 0 1 0 4.5 0 a2.25 2.25 0 1 0 -4.5 0zM1032.75 99 a2.25 2.25 0 1 0 4.5 0 a2.25 2.25 0 1 0 -4.5 0zM96.75 243 a2.25 2.25 0 1 0 4.5 0 a2.25 2.25 0 1 0 -4.5 0zM186.75 225 a2.25 2.25 0 1 0 4.5 0 a2.25 2.25 0 1 0 -4.5 0zM1608.75 117 a2.25 2.25 0 1 0 4.5 0 a2.25 2.25 0 1 0 -4.5 0zM1500.75 99 a2.25 2.25 0 1 0 4.5 0 a2.25 2.25 0 1 0 -4.5 0zM1500.75 153 a2.25 2.25 0 1 0 4.5 0 a2.25 2.25 0 1 0 -4.5 0zM690.75 171 a2.25 2.25 0 1 0 4.5 0 a2.25 2.25 0 1 0 -4.5 0zM1428.75 189 a2.25 2.25 0 1 0 4.5 0 a2.25 2.25 0 1 0 -4.5 0zM1338.75 117 a2.25 2.25 0 1 0 4.5 0 a2.25 2.25 0 1 0 -4.5 0zM690.75 207 a2.25 2.25 0 1 0 4.5 0 a2.25 2.25 0 1 0 -4.5 0zM888.75 81 a2.25 2.25 0 1 0 4.5 0 a2.25 2.25 0 1 0 -4.5 0zM1734.75 135 a2.25 2.25 0 1 0 4.5 0 a2.25 2.25 0 1 0 -4.5 0zM906.75 171 a2.25 2.25 0 1 0 4.5 0 a2.25 2.25 0 1 0 -4.5 0zM258.75 207 a2.25 2.25 0 1 0 4.5 0 a2.25 2.25 0 1 0 -4.5 0zM1608.75 135 a2.25 2.25 0 1 0 4.5 0 a2.25 2.25 0 1 0 -4.5 0zM618.75 171 a2.25 2.25 0 1 0 4.5 0 a2.25 2.25 0 1 0 -4.5 0zM1590.75 135 a2.25 2.25 0 1 0 4.5 0 a2.25 2.25 0 1 0 -4.5 0z" fill="black"></path><path d="M330.75 909 a2.25 2.25 0 1 0 4.5 0 a2.25 2.25 0 1 0 -4.5 0zM204.75 909 a2.25 2.25 0 1 0 4.5 0 a2.25 2.25 0 1 0 -4.5 0zM330.75 927 a2.25 2.25 0 1 0 4.5 0 a2.25 2.25 0 1 0 -4.5 0zM330.75 945 a2.25 2.25 0 1 0 4.5 0 a2.25 2.25 0 1 0 -4.5 0zM168.75 909 a2.25 2.25 0 1 0 4.5 0 a2.25 2.25 0 1 0 -4.5 0zM276.75 927 a2.25 2.25 0 1 0 4.5 0 a2.25 2.25 0 1 0 -4.5 0z" fill="black"></path></mask></defs></svg>